<svg version="1.1" viewBox="0.0 0.0 600.0 371.0" fill="none" stroke="none" stroke-linecap="square" stroke-miterlimit="10" width="600" height="371" xmlns:xlink="http://www.w3.org/1999/xlink" xmlns="http://www.w3.org/2000/svg"><path fill="#ffffff" d="M0 0L600.0 0L600.0 371.0L0 371.0L0 0Z" fill-rule="nonzero"/><path stroke="#cccccc" stroke-width="1.0" stroke-linecap="butt" d="M165.5 62.5L165.5 298.5" fill-rule="nonzero"/><path stroke="#cccccc" stroke-width="1.0" stroke-linecap="butt" d="M230.5 62.5L230.5 298.5" fill-rule="nonzero"/><path stroke="#cccccc" stroke-width="1.0" stroke-linecap="butt" d="M296.5 62.5L296.5 298.5" fill-rule="nonzero"/><path stroke="#cccccc" stroke-width="1.0" stroke-linecap="butt" d="M361.5 62.5L361.5 298.5" fill-rule="nonzero"/><path stroke="#cccccc" stroke-width="1.0" stroke-linecap="butt" d="M426.5 62.5L426.5 298.5" fill-rule="nonzero"/><path stroke="#333333" stroke-width="1.0" stroke-linecap="butt" d="M103.5 298.5L426.5 298.5" fill-rule="nonzero"/><path stroke="#cccccc" stroke-width="1.0" stroke-linecap="butt" d="M103.5 219.5L426.5 219.5" fill-rule="nonzero"/><path stroke="#cccccc" stroke-width="1.0" stroke-linecap="butt" d="M103.5 141.5L426.5 141.5" fill-rule="nonzero"/><path stroke="#cccccc" stroke-width="1.0" stroke-linecap="butt" d="M103.5 62.5L426.5 62.5" fill-rule="nonzero"/><clipPath id="id_0"><path d="M103.55 62.416668L426.61444 62.416668L426.61444 298.45L103.55 298.45L103.55 62.416668Z" clip-rule="nonzero"/></clipPath><path stroke="#4285f4" stroke-width="2.0" stroke-linecap="butt" clip-path="url(#id_0)" d="M103.55 175.43442L132.9195 174.86946L263.4506 170.35645L426.61444 165.20131" fill-rule="nonzero"/><path stroke="#db4437" stroke-width="2.0" stroke-linecap="butt" clip-path="url(#id_0)" d="M103.55 297.3242L132.9195 287.4064L263.4506 242.33304L426.61444 188.68456" fill-rule="nonzero"/><path stroke="#f4b400" stroke-width="2.0" stroke-linecap="butt" clip-path="url(#id_0)" d="M103.55 113.96741L132.9195 113.40314L263.4506 108.89123L426.61444 103.73493" fill-rule="nonzero"/><path stroke="#0f9d58" stroke-width="2.0" stroke-linecap="butt" clip-path="url(#id_0)" d="M103.55 297.26218L132.9195 286.74023L263.4506 237.97122L426.61444 177.4947" fill-rule="nonzero"/><path stroke="#ff6d00" stroke-width="2.0" stroke-linecap="butt" clip-path="url(#id_0)" d="M103.55 297.35526L132.9195 294.1164L263.4506 274.85153L426.61444 251.25513" fill-rule="nonzero"/><path stroke="#46bdc6" stroke-width="2.0" stroke-linecap="butt" clip-path="url(#id_0)" d="M103.55 174.1453L132.9195 164.55763L263.4506 129.10835L426.61444 82.70223" fill-rule="nonzero"/><path stroke="#ab30c4" stroke-width="2.0" stroke-linecap="butt" clip-path="url(#id_0)" d="M103.55 298.3685L132.9195 298.12677L263.4506 297.1597L426.61444 293.2923" fill-rule="nonzero"/><path fill="#000000" fill-opacity="0.0" clip-path="url(#id_0)" d="M106.55 175.43442C106.55 177.09126 105.206856 178.43442 103.55 178.43442C101.89314 178.43442 100.55 177.09126 100.55 175.43442C100.55 173.77756 101.89314 172.43442 103.55 172.43442C105.206856 172.43442 106.55 173.77756 106.55 175.43442Z" fill-rule="nonzero"/><path fill="#000000" fill-opacity="0.0" clip-path="url(#id_0)" d="M135.9195 174.86946C135.9195 176.52632 134.57635 177.86946 132.9195 177.86946C131.26263 177.86946 129.9195 176.52632 129.9195 174.86946C129.9195 173.21262 131.26263 171.86946 132.9195 171.86946C134.57635 171.86946 135.9195 173.21262 135.9195 174.86946Z" fill-rule="nonzero"/><path fill="#000000" fill-opacity="0.0" clip-path="url(#id_0)" d="M266.4506 170.35645C266.4506 172.01329 265.10745 173.35645 263.4506 173.35645C261.79373 173.35645 260.4506 172.01329 260.4506 170.35645C260.4506 168.69958 261.79373 167.35645 263.4506 167.35645C265.10745 167.35645 266.4506 168.69958 266.4506 170.35645Z" fill-rule="nonzero"/><path fill="#000000" fill-opacity="0.0" clip-path="url(#id_0)" d="M429.61444 165.20131C429.61444 166.85817 428.2713 168.20131 426.61444 168.20131C424.95758 168.20131 423.61444 166.85817 423.61444 165.20131C423.61444 163.54445 424.95758 162.20131 426.61444 162.20131C428.2713 162.20131 429.61444 163.54445 429.61444 165.20131Z" fill-rule="nonzero"/><path fill="#000000" fill-opacity="0.0" clip-path="url(#id_0)" d="M106.55 297.3242C106.55 298.98105 105.206856 300.3242 103.55 300.3242C101.89314 300.3242 100.55 298.98105 100.55 297.3242C100.55 295.66736 101.89314 294.3242 103.55 294.3242C105.206856 294.3242 106.55 295.66736 106.55 297.3242Z" fill-rule="nonzero"/><path fill="#000000" fill-opacity="0.0" clip-path="url(#id_0)" d="M135.9195 287.4064C135.9195 289.06326 134.57635 290.4064 132.9195 290.4064C131.26263 290.4064 129.9195 289.06326 129.9195 287.4064C129.9195 285.74954 131.26263 284.4064 132.9195 284.4064C134.57635 284.4064 135.9195 285.74954 135.9195 287.4064Z" fill-rule="nonzero"/><path fill="#000000" fill-opacity="0.0" clip-path="url(#id_0)" d="M266.4506 242.33304C266.4506 243.9899 265.10745 245.33304 263.4506 245.33304C261.79373 245.33304 260.4506 243.9899 260.4506 242.33304C260.4506 240.67618 261.79373 239.33304 263.4506 239.33304C265.10745 239.33304 266.4506 240.67618 266.4506 242.33304Z" fill-rule="nonzero"/><path fill="#000000" fill-opacity="0.0" clip-path="url(#id_0)" d="M429.61444 188.68456C429.61444 190.34142 428.2713 191.68456 426.61444 191.68456C424.95758 191.68456 423.61444 190.34142 423.61444 188.68456C423.61444 187.0277 424.95758 185.68456 426.61444 185.68456C428.2713 185.68456 429.61444 187.0277 429.61444 188.68456Z" fill-rule="nonzero"/><path fill="#000000" fill-opacity="0.0" clip-path="url(#id_0)" d="M106.55 113.96741C106.55 115.62426 105.206856 116.96741 103.55 116.96741C101.89314 116.96741 100.55 115.62426 100.55 113.96741C100.55 112.310555 101.89314 110.96741 103.55 110.96741C105.206856 110.96741 106.55 112.310555 106.55 113.96741Z" fill-rule="nonzero"/><path fill="#000000" fill-opacity="0.0" clip-path="url(#id_0)" d="M135.9195 113.40314C135.9195 115.06 134.57635 116.40314 132.9195 116.40314C131.26263 116.40314 129.9195 115.06 129.9195 113.40314C129.9195 111.746284 131.26263 110.40314 132.9195 110.40314C134.57635 110.40314 135.9195 111.746284 135.9195 113.40314Z" fill-rule="nonzero"/><path fill="#000000" fill-opacity="0.0" clip-path="url(#id_0)" d="M266.4506 108.89123C266.4506 110.54808 265.10745 111.89123 263.4506 111.89123C261.79373 111.89123 260.4506 110.54808 260.4506 108.89123C260.4506 107.234375 261.79373 105.89123 263.4506 105.89123C265.10745 105.89123 266.4506 107.234375 266.4506 108.89123Z" fill-rule="nonzero"/><path fill="#000000" fill-opacity="0.0" clip-path="url(#id_0)" d="M429.61444 103.73493C429.61444 105.39179 428.2713 106.73493 426.61444 106.73493C424.95758 106.73493 423.61444 105.39179 423.61444 103.73493C423.61444 102.07808 424.95758 100.73493 426.61444 100.73493C428.2713 100.73493 429.61444 102.07808 429.61444 103.73493Z" fill-rule="nonzero"/><path fill="#000000" fill-opacity="0.0" clip-path="url(#id_0)" d="M106.55 297.26218C106.55 298.91904 105.206856 300.26218 103.55 300.26218C101.89314 300.26218 100.55 298.91904 100.55 297.26218C100.55 295.60532 101.89314 294.26218 103.55 294.26218C105.206856 294.26218 106.55 295.60532 106.55 297.26218Z" fill-rule="nonzero"/><path fill="#000000" fill-opacity="0.0" clip-path="url(#id_0)" d="M135.9195 286.74023C135.9195 288.3971 134.57635 289.74023 132.9195 289.74023C131.26263 289.74023 129.9195 288.3971 129.9195 286.74023C129.9195 285.0834 131.26263 283.74023 132.9195 283.74023C134.57635 283.74023 135.9195 285.0834 135.9195 286.74023Z" fill-rule="nonzero"/><path fill="#000000" fill-opacity="0.0" clip-path="url(#id_0)" d="M266.4506 237.97122C266.4506 239.62808 265.10745 240.97122 263.4506 240.97122C261.79373 240.97122 260.4506 239.62808 260.4506 237.97122C260.4506 236.31436 261.79373 234.97122 263.4506 234.97122C265.10745 234.97122 266.4506 236.31436 266.4506 237.97122Z" fill-rule="nonzero"/><path fill="#000000" fill-opacity="0.0" clip-path="url(#id_0)" d="M429.61444 177.4947C429.61444 179.15157 428.2713 180.4947 426.61444 180.4947C424.95758 180.4947 423.61444 179.15157 423.61444 177.4947C423.61444 175.83784 424.95758 174.4947 426.61444 174.4947C428.2713 174.4947 429.61444 175.83784 429.61444 177.4947Z" fill-rule="nonzero"/><path fill="#000000" fill-opacity="0.0" clip-path="url(#id_0)" d="M106.55 297.35526C106.55 299.0121 105.206856 300.35526 103.55 300.35526C101.89314 300.35526 100.55 299.0121 100.55 297.35526C100.55 295.6984 101.89314 294.35526 103.55 294.35526C105.206856 294.35526 106.55 295.6984 106.55 297.35526Z" fill-rule="nonzero"/><path fill="#000000" fill-opacity="0.0" clip-path="url(#id_0)" d="M135.9195 294.1164C135.9195 295.77322 134.57635 297.1164 132.9195 297.1164C131.26263 297.1164 129.9195 295.77322 129.9195 294.1164C129.9195 292.45953 131.26263 291.1164 132.9195 291.1164C134.57635 291.1164 135.9195 292.45953 135.9195 294.1164Z" fill-rule="nonzero"/><path fill="#000000" fill-opacity="0.0" clip-path="url(#id_0)" d="M266.4506 274.85153C266.4506 276.5084 265.10745 277.85153 263.4506 277.85153C261.79373 277.85153 260.4506 276.5084 260.4506 274.85153C260.4506 273.19467 261.79373 271.85153 263.4506 271.85153C265.10745 271.85153 266.4506 273.19467 266.4506 274.85153Z" fill-rule="nonzero"/><path fill="#000000" fill-opacity="0.0" clip-path="url(#id_0)" d="M429.61444 251.25513C429.61444 252.91199 428.2713 254.25513 426.61444 254.25513C424.95758 254.25513 423.61444 252.91199 423.61444 251.25513C423.61444 249.59828 424.95758 248.25513 426.61444 248.25513C428.2713 248.25513 429.61444 249.59828 429.61444 251.25513Z" fill-rule="nonzero"/><path fill="#000000" fill-opacity="0.0" clip-path="url(#id_0)" d="M106.55 174.1453C106.55 175.80215 105.206856 177.1453 103.55 177.1453C101.89314 177.1453 100.55 175.80215 100.55 174.1453C100.55 172.48845 101.89314 171.1453 103.55 171.1453C105.206856 171.1453 106.55 172.48845 106.55 174.1453Z" fill-rule="nonzero"/><path fill="#000000" fill-opacity="0.0" clip-path="url(#id_0)" d="M135.9195 164.55763C135.9195 166.21448 134.57635 167.55763 132.9195 167.55763C131.26263 167.55763 129.9195 166.21448 129.9195 164.55763C129.9195 162.90077 131.26263 161.55763 132.9195 161.55763C134.57635 161.55763 135.9195 162.90077 135.9195 164.55763Z" fill-rule="nonzero"/><path fill="#000000" fill-opacity="0.0" clip-path="url(#id_0)" d="M266.4506 129.10835C266.4506 130.76521 265.10745 132.10835 263.4506 132.10835C261.79373 132.10835 260.4506 130.76521 260.4506 129.10835C260.4506 127.4515 261.79373 126.10835 263.4506 126.10835C265.10745 126.10835 266.4506 127.4515 266.4506 129.10835Z" fill-rule="nonzero"/><path fill="#000000" fill-opacity="0.0" clip-path="url(#id_0)" d="M429.61444 82.70223C429.61444 84.359085 428.2713 85.70223 426.61444 85.70223C424.95758 85.70223 423.61444 84.359085 423.61444 82.70223C423.61444 81.04538 424.95758 79.70223 426.61444 79.70223C428.2713 79.70223 429.61444 81.04538 429.61444 82.70223Z" fill-rule="nonzero"/><path fill="#000000" fill-opacity="0.0" clip-path="url(#id_0)" d="M106.55 298.3685C106.55 300.02536 105.206856 301.3685 103.55 301.3685C101.89314 301.3685 100.55 300.02536 100.55 298.3685C100.55 296.71164 101.89314 295.3685 103.55 295.3685C105.206856 295.3685 106.55 296.71164 106.55 298.3685Z" fill-rule="nonzero"/><path fill="#000000" fill-opacity="0.0" clip-path="url(#id_0)" d="M135.9195 298.12677C135.9195 299.78363 134.57635 301.12677 132.9195 301.12677C131.26263 301.12677 129.9195 299.78363 129.9195 298.12677C129.9195 296.4699 131.26263 295.12677 132.9195 295.12677C134.57635 295.12677 135.9195 296.4699 135.9195 298.12677Z" fill-rule="nonzero"/><path fill="#000000" fill-opacity="0.0" clip-path="url(#id_0)" d="M266.4506 297.1597C266.4506 298.81656 265.10745 300.1597 263.4506 300.1597C261.79373 300.1597 260.4506 298.81656 260.4506 297.1597C260.4506 295.50284 261.79373 294.1597 263.4506 294.1597C265.10745 294.1597 266.4506 295.50284 266.4506 297.1597Z" fill-rule="nonzero"/><path fill="#000000" fill-opacity="0.0" clip-path="url(#id_0)" d="M429.61444 293.2923C429.61444 294.94916 428.2713 296.2923 426.61444 296.2923C424.95758 296.2923 423.61444 294.94916 423.61444 293.2923C423.61444 291.63544 424.95758 290.2923 426.61444 290.2923C428.2713 290.2923 429.61444 291.63544 429.61444 293.2923Z" fill-rule="nonzero"/><path fill="#424242" d="M240.78535 349.45L239.66035 349.45L239.66035 340.91876L240.78535 340.91876L240.78535 349.45ZM243.42598 343.10626L243.45723 343.90314Q244.1916 342.9969 245.36348 342.9969Q247.3791 342.9969 247.39473 345.2625L247.39473 349.45L246.30098 349.45L246.30098 345.2469Q246.30098 344.575 245.98848 344.2469Q245.6916 343.91876 245.03535 343.91876Q244.5041 343.91876 244.09785 344.2Q243.70723 344.48126 243.48848 344.9344L243.48848 349.45L242.41035 349.45L242.41035 343.10626L243.42598 343.10626ZM254.7541 346.35626Q254.7541 347.79376 254.09785 348.6844Q253.4416 349.575 252.30098 349.575Q251.14473 349.575 250.48848 348.84064L250.48848 351.8875L249.41035 351.8875L249.41035 343.10626L250.39473 343.10626L250.4416 343.8094Q251.11348 342.9969 252.28535 342.9969Q253.42598 342.9969 254.08223 343.85626Q254.7541 344.71564 254.7541 346.2469L254.7541 346.35626ZM253.67598 346.23126Q253.67598 345.15314 253.20723 344.54376Q252.7541 343.91876 251.95723 343.91876Q250.97285 343.91876 250.48848 344.77814L250.48848 347.8094Q250.97285 348.6844 251.97285 348.6844Q252.7541 348.6844 253.20723 348.075Q253.67598 347.45 253.67598 346.23126ZM260.3166 348.825Q259.6916 349.575 258.4572 349.575Q257.4416 349.575 256.91034 348.98126Q256.3791 348.3875 256.3791 347.23126L256.3791 343.10626L257.4572 343.10626L257.4572 347.2Q257.4572 348.65314 258.6291 348.65314Q259.8791 348.65314 260.28534 347.71564L260.28534 343.10626L261.3791 343.10626L261.3791 349.45L260.34784 349.45L260.3166 348.825ZM264.8791 341.575L264.8791 343.10626L266.05096 343.10626L266.05096 343.95L264.8791 343.95L264.8791 347.8719Q264.8791 348.2625 265.03534 348.45Q265.1916 348.6375 265.5666 348.6375Q265.7541 348.6375 266.0822 348.575L266.0822 349.45Q265.66034 349.575 265.2541 349.575Q264.53534 349.575 264.16034 349.1375Q263.78534 348.6844 263.78534 347.8719L263.78534 343.95L262.6291 343.95L262.6291 343.10626L263.78534 343.10626L263.78534 341.575L264.8791 341.575ZM273.0822 345.65314Q271.6447 345.23126 270.97284 344.6219Q270.3166 344.0125 270.3166 343.1219Q270.3166 342.1219 271.11346 341.46564Q271.92596 340.79376 273.22284 340.79376Q274.09784 340.79376 274.78534 341.1375Q275.47284 341.48126 275.84784 342.075Q276.23846 342.66876 276.23846 343.3875L275.09784 343.3875Q275.09784 342.60626 274.59784 342.16876Q274.11346 341.73126 273.22284 341.73126Q272.3947 341.73126 271.92596 342.10626Q271.4572 342.46564 271.4572 343.10626Q271.4572 343.6375 271.8947 343.9969Q272.34784 344.35626 273.41034 344.65314Q274.47284 344.95 275.0666 345.3094Q275.67596 345.66876 275.9572 346.15314Q276.2541 346.6375 276.2541 347.27814Q276.2541 348.325 275.4416 348.95Q274.6291 349.575 273.28534 349.575Q272.3947 349.575 271.6291 349.23126Q270.8791 348.8875 270.4572 348.3094Q270.05096 347.71564 270.05096 346.98126L271.17596 346.98126Q271.17596 347.7469 271.7541 348.2Q272.3322 348.65314 273.28534 348.65314Q274.17596 348.65314 274.6447 348.29376Q275.11346 347.91876 275.11346 347.29376Q275.11346 346.66876 274.67596 346.325Q274.23846 345.98126 273.0822 345.65314ZM278.5822 349.45L277.5041 349.45L277.5041 343.10626L278.5822 343.10626L278.5822 349.45ZM277.41034 341.4344Q277.41034 341.16876 277.5666 340.98126Q277.73846 340.79376 278.05096 340.79376Q278.36346 340.79376 278.5197 340.98126Q278.6916 341.16876 278.6916 341.4344Q278.6916 341.6844 278.5197 341.8719Q278.36346 342.04376 278.05096 342.04376Q277.73846 342.04376 277.5666 341.8719Q277.41034 341.6844 277.41034 341.4344ZM281.42596 348.5594L285.1291 348.5594L285.1291 349.45L280.09784 349.45L280.09784 348.65314L283.59784 344.0125L280.1447 344.0125L280.1447 343.10626L284.9572 343.10626L284.9572 343.8719L281.42596 348.5594ZM289.03534 349.575Q287.73846 349.575 286.92596 348.73126Q286.1291 347.8719 286.1291 346.45L286.1291 346.2625Q286.1291 345.3094 286.48846 344.575Q286.84784 343.825 287.48846 343.41876Q288.1447 342.9969 288.8947 342.9969Q290.1291 342.9969 290.8166 343.8094Q291.5041 344.6219 291.5041 346.1375L291.5041 346.59064L287.2072 346.59064Q287.23846 347.52814 287.7541 348.10626Q288.28534 348.6844 289.09784 348.6844Q289.66034 348.6844 290.05096 348.45Q290.4572 348.21564 290.7697 347.825L291.42596 348.34064Q290.6291 349.575 289.03534 349.575ZM288.8947 343.8875Q288.23846 343.8875 287.78534 344.3719Q287.34784 344.84064 287.2541 345.7L290.42596 345.7L290.42596 345.6219Q290.3791 344.79376 289.97284 344.34064Q289.5822 343.8875 288.8947 343.8875Z" fill-rule="nonzero"/><path fill="#424242" d="M29.315638 219.48021L29.315638 223.05833L31.550013 223.85521L31.550013 225.01146L23.018763 221.76146L23.018763 220.77708L31.550013 217.51146L31.550013 218.66771L29.315638 219.48021ZM28.393763 222.71458L28.393763 219.80833L24.409388 221.26146L28.393763 222.71458ZM31.550013 215.18333L31.550013 216.26146L22.550013 216.26146L22.550013 215.18333L31.550013 215.18333ZM31.550013 212.18333L31.550013 213.26146L22.550013 213.26146L22.550013 212.18333L31.550013 212.18333ZM28.315638 210.65208Q27.393763 210.65208 26.643763 210.29271Q25.893763 209.91771 25.503138 209.26146Q25.096888 208.60521 25.096888 207.77708Q25.096888 206.48021 25.987513 205.68333Q26.878138 204.87083 28.378138 204.87083L28.456263 204.87083Q29.378138 204.87083 30.112513 205.23021Q30.846888 205.58958 31.268763 206.24583Q31.675013 206.90208 31.675013 207.76146Q31.675013 209.04271 30.784388 209.85521Q29.878138 210.65208 28.393763 210.65208L28.315638 210.65208ZM28.456263 209.55833Q29.503138 209.55833 30.143763 209.07396Q30.784388 208.57396 30.784388 207.76146Q30.784388 206.93333 30.143763 206.44896Q29.487513 205.96458 28.315638 205.96458Q27.284388 205.96458 26.643763 206.46458Q25.987513 206.94896 25.987513 207.77708Q25.987513 208.57396 26.628138 209.07396Q27.253138 209.55833 28.456263 209.55833ZM30.784388 200.82396Q30.784388 200.24583 30.440638 199.80833Q30.081263 199.37083 29.550013 199.32396L29.550013 198.29271Q30.096888 198.32396 30.596888 198.68333Q31.081263 199.02708 31.378138 199.60521Q31.675013 200.16771 31.675013 200.82396Q31.675013 202.12083 30.815638 202.88646Q29.940638 203.63646 28.440638 203.63646L28.253138 203.63646Q27.331263 203.63646 26.612513 203.30833Q25.893763 202.96458 25.503138 202.33958Q25.096888 201.69896 25.096888 200.82396Q25.096888 199.76146 25.737513 199.05833Q26.362513 198.33958 27.393763 198.29271L27.393763 199.32396Q26.768763 199.37083 26.378138 199.79271Q25.987513 200.21458 25.987513 200.82396Q25.987513 201.65208 26.581263 202.10521Q27.175013 202.55833 28.300013 202.55833L28.503138 202.55833Q29.596888 202.55833 30.190638 202.10521Q30.784388 201.65208 30.784388 200.82396ZM31.550013 193.44896Q31.362513 193.54271 30.878138 193.60521Q31.675013 194.35521 31.675013 195.40208Q31.675013 196.33958 31.143763 196.94896Q30.612513 197.54271 29.784388 197.54271Q28.800013 197.54271 28.253138 196.79271Q27.706263 196.04271 27.706263 194.66771L27.706263 193.62083L27.206263 193.62083Q26.643763 193.62083 26.315638 193.96458Q25.971888 194.29271 25.971888 194.96458Q25.971888 195.54271 26.268763 195.93333Q26.550013 196.32396 26.971888 196.32396L26.971888 197.41771Q26.487513 197.41771 26.050013 197.08958Q25.612513 196.74583 25.362513 196.16771Q25.096888 195.58958 25.096888 194.90208Q25.096888 193.79271 25.643763 193.18333Q26.190638 192.55833 27.143763 192.52708L30.065638 192.52708Q30.940638 192.52708 31.456263 192.30833L31.550013 192.30833L31.550013 193.44896ZM30.721888 195.24583Q30.721888 194.73021 30.456263 194.27708Q30.190638 193.82396 29.768763 193.62083L28.471888 193.62083L28.471888 194.46458Q28.471888 196.46458 29.643763 196.46458Q30.143763 196.46458 30.440638 196.12083Q30.721888 195.77708 30.721888 195.24583ZM23.675013 188.88646L25.206263 188.88646L25.206263 187.71458L26.050013 187.71458L26.050013 188.88646L29.971888 188.88646Q30.362513 188.88646 30.550013 188.73021Q30.737513 188.57396 30.737513 188.19896Q30.737513 188.01146 30.675013 187.68333L31.550013 187.68333Q31.675013 188.10521 31.675013 188.51146Q31.675013 189.23021 31.237513 189.60521Q30.784388 189.98021 29.971888 189.98021L26.050013 189.98021L26.050013 191.13646L25.206263 191.13646L25.206263 189.98021L23.675013 189.98021L23.675013 188.88646ZM31.675013 183.73021Q31.675013 185.02708 30.831263 185.83958Q29.971888 186.63646 28.550013 186.63646L28.362513 186.63646Q27.409388 186.63646 26.675013 186.27708Q25.925013 185.91771 25.518763 185.27708Q25.096888 184.62083 25.096888 183.87083Q25.096888 182.63646 25.909388 181.94896Q26.721888 181.26146 28.237513 181.26146L28.690638 181.26146L28.690638 185.55833Q29.628138 185.52708 30.206263 185.01146Q30.784388 184.48021 30.784388 183.66771Q30.784388 183.10521 30.550013 182.71458Q30.315638 182.30833 29.925013 181.99583L30.440638 181.33958Q31.675013 182.13646 31.675013 183.73021ZM25.987513 183.87083Q25.987513 184.52708 26.471888 184.98021Q26.940638 185.41771 27.800013 185.51146L27.800013 182.33958L27.721888 182.33958Q26.893763 182.38646 26.440638 182.79271Q25.987513 183.18333 25.987513 183.87083ZM28.331263 180.62083Q26.862513 180.62083 25.987513 179.93333Q25.096888 179.24583 25.096888 178.12083Q25.096888 177.01146 25.846888 176.35521L22.550013 176.35521L22.550013 175.27708L31.550013 175.27708L31.550013 176.27708L30.862513 176.32396Q31.675013 176.98021 31.675013 178.13646Q31.675013 179.23021 30.768763 179.93333Q29.862513 180.62083 28.409388 180.62083L28.331263 180.62083ZM28.456263 179.54271Q29.534388 179.54271 30.143763 179.10521Q30.753138 178.65208 30.753138 177.87083Q30.753138 176.83958 29.815638 176.35521L26.909388 176.35521Q26.018763 176.83958 26.018763 177.85521Q26.018763 178.65208 26.628138 179.10521Q27.237513 179.54271 28.456263 179.54271ZM28.081263 170.40208Q26.768763 170.40208 25.550013 170.05833Q24.331263 169.69896 23.331263 168.99583Q22.331263 168.29271 21.925013 167.52708L22.643763 167.30833Q23.300013 168.16771 24.643763 168.71458Q25.987513 169.26146 27.659388 169.30833L28.159388 169.32396Q30.425013 169.32396 32.08126 168.49583Q33.08126 167.99583 33.64376 167.30833L34.30001 167.52708Q33.878136 168.30833 32.846886 169.02708Q30.862513 170.40208 28.081263 170.40208ZM27.581263 164.02708L28.659388 165.07396L31.550013 165.07396L31.550013 166.19896L23.018763 166.19896L23.018763 165.07396L27.237513 165.07396L23.018763 161.27708L23.018763 159.91771L26.784388 163.27708L31.550013 159.65208L31.550013 160.99583L27.581263 164.02708ZM31.550013 158.19896L23.018763 158.19896L23.018763 155.40208Q23.018763 154.01146 23.596888 153.32396Q24.159388 152.62083 25.284388 152.62083Q25.893763 152.62083 26.362513 152.96458Q26.815638 153.29271 27.065638 153.88646Q27.253138 153.18333 27.800013 152.79271Q28.331263 152.38646 29.081263 152.38646Q30.237513 152.38646 30.893763 153.13646Q31.550013 153.87083 31.550013 155.23021L31.550013 158.19896ZM27.565638 157.07396L30.628138 157.07396L30.628138 155.21458Q30.628138 154.41771 30.221888 153.96458Q29.815638 153.51146 29.096888 153.51146Q27.565638 153.51146 27.565638 155.19896L27.565638 157.07396ZM26.659388 157.07396L26.659388 155.37083Q26.659388 154.63646 26.300013 154.19896Q25.925013 153.74583 25.284388 153.74583Q24.581263 153.74583 24.268763 154.15208Q23.940638 154.55833 23.940638 155.40208L23.940638 157.07396L26.659388 157.07396ZM28.143763 148.85521Q29.456263 148.85521 30.659388 149.19896Q31.846888 149.54271 32.86251 150.26146Q33.878136 150.96458 34.30001 151.73021L33.64376 151.96458Q32.95626 151.05833 31.503138 150.51146Q30.034388 149.96458 28.268763 149.94896L28.081263 149.94896Q26.846888 149.94896 25.784388 150.21458Q24.721888 150.46458 23.893763 150.93333Q23.050013 151.38646 22.581263 151.96458L21.925013 151.73021Q22.346888 150.96458 23.346888 150.26146Q24.346888 149.55833 25.565638 149.21458Q26.768763 148.85521 28.143763 148.85521Z" fill-rule="nonzero"/><path fill="#757575" d="M96.6125 299.3094Q96.6125 301.21564 95.95625 302.15314Q95.31563 303.075 93.925 303.075Q92.56563 303.075 91.90938 302.16876Q91.25313 301.2625 91.22188 299.45L91.22188 298.0125Q91.22188 296.1219 91.8625 295.21564Q92.51875 294.29376 93.90938 294.29376Q95.28438 294.29376 95.94063 295.1844Q96.59688 296.0594 96.6125 297.90314L96.6125 299.3094ZM95.51875 297.825Q95.51875 296.45 95.12813 295.825Q94.75313 295.1844 93.90938 295.1844Q93.08125 295.1844 92.69063 295.825Q92.31563 296.45 92.31563 297.7469L92.31563 299.48126Q92.31563 300.85626 92.70625 301.52814Q93.1125 302.1844 93.925 302.1844Q94.72188 302.1844 95.1125 301.5594Q95.50313 300.9344 95.51875 299.60626L95.51875 297.825Z" fill-rule="nonzero"/><path fill="#757575" d="M56.753124 219.99097L57.190624 215.74097L61.565624 215.74097L61.565624 216.74097L58.1125 216.74097L57.846874 219.06909Q58.4875 218.69409 59.284374 218.69409Q60.440624 218.69409 61.128124 219.47534Q61.815624 220.24097 61.815624 221.55347Q61.815624 222.86597 61.096874 223.63159Q60.39375 224.39722 59.1125 224.39722Q57.9875 224.39722 57.26875 223.77222Q56.55 223.13159 56.45625 222.02222L57.471874 222.02222Q57.58125 222.75659 58.003124 223.13159Q58.425 223.50659 59.1125 223.50659Q59.8625 223.50659 60.3 222.99097Q60.7375 222.47534 60.7375 221.56909Q60.7375 220.70972 60.26875 220.19409Q59.8 219.67847 59.01875 219.67847Q58.315624 219.67847 57.909374 219.97534L57.628124 220.20972L56.753124 219.99097ZM68.6125 220.63159Q68.6125 222.53784 67.95625 223.47534Q67.31563 224.39722 65.925 224.39722Q64.56563 224.39722 63.909374 223.49097Q63.253124 222.58472 63.221874 220.77222L63.221874 219.33472Q63.221874 217.44409 63.8625 216.53784Q64.51875 215.61597 65.90938 215.61597Q67.28438 215.61597 67.94063 216.50659Q68.59688 217.38159 68.6125 219.22534L68.6125 220.63159ZM67.51875 219.14722Q67.51875 217.77222 67.12813 217.14722Q66.75313 216.50659 65.90938 216.50659Q65.08125 216.50659 64.69063 217.14722Q64.31563 217.77222 64.31563 219.06909L64.31563 220.80347Q64.31563 222.17847 64.70625 222.85034Q65.1125 223.50659 65.925 223.50659Q66.72188 223.50659 67.1125 222.88159Q67.50313 222.25659 67.51875 220.92847L67.51875 219.14722ZM75.6125 220.63159Q75.6125 222.53784 74.95625 223.47534Q74.31563 224.39722 72.925 224.39722Q71.56563 224.39722 70.90938 223.49097Q70.25313 222.58472 70.22188 220.77222L70.22188 219.33472Q70.22188 217.44409 70.8625 216.53784Q71.51875 215.61597 72.90938 215.61597Q74.28438 215.61597 74.94063 216.50659Q75.59688 217.38159 75.6125 219.22534L75.6125 220.63159ZM74.51875 219.14722Q74.51875 217.77222 74.12813 217.14722Q73.75313 216.50659 72.90938 216.50659Q72.08125 216.50659 71.69063 217.14722Q71.31563 217.77222 71.31563 219.06909L71.31563 220.80347Q71.31563 222.17847 71.70625 222.85034Q72.1125 223.50659 72.925 223.50659Q73.72188 223.50659 74.1125 222.88159Q74.50313 222.25659 74.51875 220.92847L74.51875 219.14722ZM82.6125 220.63159Q82.6125 222.53784 81.95625 223.47534Q81.31563 224.39722 79.925 224.39722Q78.56563 224.39722 77.90938 223.49097Q77.25313 222.58472 77.22188 220.77222L77.22188 219.33472Q77.22188 217.44409 77.8625 216.53784Q78.51875 215.61597 79.90938 215.61597Q81.28438 215.61597 81.94063 216.50659Q82.59688 217.38159 82.6125 219.22534L82.6125 220.63159ZM81.51875 219.14722Q81.51875 217.77222 81.12813 217.14722Q80.75313 216.50659 79.90938 216.50659Q79.08125 216.50659 78.69063 217.14722Q78.31563 217.77222 78.31563 219.06909L78.31563 220.80347Q78.31563 222.17847 78.70625 222.85034Q79.1125 223.50659 79.925 223.50659Q80.72188 223.50659 81.1125 222.88159Q81.50313 222.25659 81.51875 220.92847L81.51875 219.14722ZM89.6125 220.63159Q89.6125 222.53784 88.95625 223.47534Q88.31563 224.39722 86.925 224.39722Q85.56563 224.39722 84.90938 223.49097Q84.25313 222.58472 84.22188 220.77222L84.22188 219.33472Q84.22188 217.44409 84.8625 216.53784Q85.51875 215.61597 86.90938 215.61597Q88.28438 215.61597 88.94063 216.50659Q89.59688 217.38159 89.6125 219.22534L89.6125 220.63159ZM88.51875 219.14722Q88.51875 217.77222 88.12813 217.14722Q87.75313 216.50659 86.90938 216.50659Q86.08125 216.50659 85.69063 217.14722Q85.31563 217.77222 85.31563 219.06909L85.31563 220.80347Q85.31563 222.17847 85.70625 222.85034Q86.1125 223.50659 86.925 223.50659Q87.72188 223.50659 88.1125 222.88159Q88.50313 222.25659 88.51875 220.92847L88.51875 219.14722ZM96.6125 220.63159Q96.6125 222.53784 95.95625 223.47534Q95.31563 224.39722 93.925 224.39722Q92.56563 224.39722 91.90938 223.49097Q91.25313 222.58472 91.22188 220.77222L91.22188 219.33472Q91.22188 217.44409 91.8625 216.53784Q92.51875 215.61597 93.90938 215.61597Q95.28438 215.61597 95.94063 216.50659Q96.59688 217.38159 96.6125 219.22534L96.6125 220.63159ZM95.51875 219.14722Q95.51875 217.77222 95.12813 217.14722Q94.75313 216.50659 93.90938 216.50659Q93.08125 216.50659 92.69063 217.14722Q92.31563 217.77222 92.31563 219.06909L92.31563 220.80347Q92.31563 222.17847 92.70625 222.85034Q93.1125 223.50659 93.925 223.50659Q94.72188 223.50659 95.1125 222.88159Q95.50313 222.25659 95.51875 220.92847L95.51875 219.14722Z" fill-rule="nonzero"/><path fill="#757575" d="M52.815624 145.59445L51.7375 145.59445L51.7375 138.3757L49.55 139.17258L49.55 138.1882L52.659374 137.01633L52.815624 137.01633L52.815624 145.59445ZM61.6125 141.95383Q61.6125 143.86008 60.95625 144.79758Q60.315624 145.71945 58.925 145.71945Q57.565624 145.71945 56.909374 144.8132Q56.253124 143.90695 56.221874 142.09445L56.221874 140.65695Q56.221874 138.76633 56.8625 137.86008Q57.51875 136.9382 58.909374 136.9382Q60.284374 136.9382 60.940624 137.82883Q61.596874 138.70383 61.6125 140.54758L61.6125 141.95383ZM60.51875 140.46945Q60.51875 139.09445 60.128124 138.46945Q59.753124 137.82883 58.909374 137.82883Q58.08125 137.82883 57.690624 138.46945Q57.315624 139.09445 57.315624 140.39133L57.315624 142.1257Q57.315624 143.5007 57.70625 144.17258Q58.1125 144.82883 58.925 144.82883Q59.721874 144.82883 60.1125 144.20383Q60.503124 143.57883 60.51875 142.2507L60.51875 140.46945ZM68.6125 141.95383Q68.6125 143.86008 67.95625 144.79758Q67.31563 145.71945 65.925 145.71945Q64.56563 145.71945 63.909374 144.8132Q63.253124 143.90695 63.221874 142.09445L63.221874 140.65695Q63.221874 138.76633 63.8625 137.86008Q64.51875 136.9382 65.90938 136.9382Q67.28438 136.9382 67.94063 137.82883Q68.59688 138.70383 68.6125 140.54758L68.6125 141.95383ZM67.51875 140.46945Q67.51875 139.09445 67.12813 138.46945Q66.75313 137.82883 65.90938 137.82883Q65.08125 137.82883 64.69063 138.46945Q64.31563 139.09445 64.31563 140.39133L64.31563 142.1257Q64.31563 143.5007 64.70625 144.17258Q65.1125 144.82883 65.925 144.82883Q66.72188 144.82883 67.1125 144.20383Q67.50313 143.57883 67.51875 142.2507L67.51875 140.46945ZM75.6125 141.95383Q75.6125 143.86008 74.95625 144.79758Q74.31563 145.71945 72.925 145.71945Q71.56563 145.71945 70.90938 144.8132Q70.25313 143.90695 70.22188 142.09445L70.22188 140.65695Q70.22188 138.76633 70.8625 137.86008Q71.51875 136.9382 72.90938 136.9382Q74.28438 136.9382 74.94063 137.82883Q75.59688 138.70383 75.6125 140.54758L75.6125 141.95383ZM74.51875 140.46945Q74.51875 139.09445 74.12813 138.46945Q73.75313 137.82883 72.90938 137.82883Q72.08125 137.82883 71.69063 138.46945Q71.31563 139.09445 71.31563 140.39133L71.31563 142.1257Q71.31563 143.5007 71.70625 144.17258Q72.1125 144.82883 72.925 144.82883Q73.72188 144.82883 74.1125 144.20383Q74.50313 143.57883 74.51875 142.2507L74.51875 140.46945ZM82.6125 141.95383Q82.6125 143.86008 81.95625 144.79758Q81.31563 145.71945 79.925 145.71945Q78.56563 145.71945 77.90938 144.8132Q77.25313 143.90695 77.22188 142.09445L77.22188 140.65695Q77.22188 138.76633 77.8625 137.86008Q78.51875 136.9382 79.90938 136.9382Q81.28438 136.9382 81.94063 137.82883Q82.59688 138.70383 82.6125 140.54758L82.6125 141.95383ZM81.51875 140.46945Q81.51875 139.09445 81.12813 138.46945Q80.75313 137.82883 79.90938 137.82883Q79.08125 137.82883 78.69063 138.46945Q78.31563 139.09445 78.31563 140.39133L78.31563 142.1257Q78.31563 143.5007 78.70625 144.17258Q79.1125 144.82883 79.925 144.82883Q80.72188 144.82883 81.1125 144.20383Q81.50313 143.57883 81.51875 142.2507L81.51875 140.46945ZM89.6125 141.95383Q89.6125 143.86008 88.95625 144.79758Q88.31563 145.71945 86.925 145.71945Q85.56563 145.71945 84.90938 144.8132Q84.25313 143.90695 84.22188 142.09445L84.22188 140.65695Q84.22188 138.76633 84.8625 137.86008Q85.51875 136.9382 86.90938 136.9382Q88.28438 136.9382 88.94063 137.82883Q89.59688 138.70383 89.6125 140.54758L89.6125 141.95383ZM88.51875 140.46945Q88.51875 139.09445 88.12813 138.46945Q87.75313 137.82883 86.90938 137.82883Q86.08125 137.82883 85.69063 138.46945Q85.31563 139.09445 85.31563 140.39133L85.31563 142.1257Q85.31563 143.5007 85.70625 144.17258Q86.1125 144.82883 86.925 144.82883Q87.72188 144.82883 88.1125 144.20383Q88.50313 143.57883 88.51875 142.2507L88.51875 140.46945ZM96.6125 141.95383Q96.6125 143.86008 95.95625 144.79758Q95.31563 145.71945 93.925 145.71945Q92.56563 145.71945 91.90938 144.8132Q91.25313 143.90695 91.22188 142.09445L91.22188 140.65695Q91.22188 138.76633 91.8625 137.86008Q92.51875 136.9382 93.90938 136.9382Q95.28438 136.9382 95.94063 137.82883Q96.59688 138.70383 96.6125 140.54758L96.6125 141.95383ZM95.51875 140.46945Q95.51875 139.09445 95.12813 138.46945Q94.75313 137.82883 93.90938 137.82883Q93.08125 137.82883 92.69063 138.46945Q92.31563 139.09445 92.31563 140.39133L92.31563 142.1257Q92.31563 143.5007 92.70625 144.17258Q93.1125 144.82883 93.925 144.82883Q94.72188 144.82883 95.1125 144.20383Q95.50313 143.57883 95.51875 142.2507L95.51875 140.46945Z" fill-rule="nonzero"/><path fill="#757575" d="M52.815624 66.916664L51.7375 66.916664L51.7375 59.697914L49.55 60.49479L49.55 59.510414L52.659374 58.33854L52.815624 58.33854L52.815624 66.916664ZM56.753124 62.635414L57.190624 58.385414L61.565624 58.385414L61.565624 59.385414L58.1125 59.385414L57.846874 61.71354Q58.4875 61.33854 59.284374 61.33854Q60.440624 61.33854 61.128124 62.11979Q61.815624 62.885414 61.815624 64.197914Q61.815624 65.510414 61.096874 66.27604Q60.39375 67.041664 59.1125 67.041664Q57.9875 67.041664 57.26875 66.416664Q56.55 65.77604 56.45625 64.666664L57.471874 64.666664Q57.58125 65.40104 58.003124 65.77604Q58.425 66.15104 59.1125 66.15104Q59.8625 66.15104 60.3 65.635414Q60.7375 65.11979 60.7375 64.21354Q60.7375 63.354164 60.26875 62.83854Q59.8 62.322914 59.01875 62.322914Q58.315624 62.322914 57.909374 62.61979L57.628124 62.854164L56.753124 62.635414ZM68.6125 63.27604Q68.6125 65.18229 67.95625 66.11979Q67.31563 67.041664 65.925 67.041664Q64.56563 67.041664 63.909374 66.135414Q63.253124 65.229164 63.221874 63.416664L63.221874 61.979164Q63.221874 60.08854 63.8625 59.18229Q64.51875 58.260414 65.90938 58.260414Q67.28438 58.260414 67.94063 59.15104Q68.59688 60.02604 68.6125 61.86979L68.6125 63.27604ZM67.51875 61.791664Q67.51875 60.416664 67.12813 59.791664Q66.75313 59.15104 65.90938 59.15104Q65.08125 59.15104 64.69063 59.791664Q64.31563 60.416664 64.31563 61.71354L64.31563 63.447914Q64.31563 64.822914 64.70625 65.49479Q65.1125 66.15104 65.925 66.15104Q66.72188 66.15104 67.1125 65.52604Q67.50313 64.90104 67.51875 63.572914L67.51875 61.791664ZM75.6125 63.27604Q75.6125 65.18229 74.95625 66.11979Q74.31563 67.041664 72.925 67.041664Q71.56563 67.041664 70.90938 66.135414Q70.25313 65.229164 70.22188 63.416664L70.22188 61.979164Q70.22188 60.08854 70.8625 59.18229Q71.51875 58.260414 72.90938 58.260414Q74.28438 58.260414 74.94063 59.15104Q75.59688 60.02604 75.6125 61.86979L75.6125 63.27604ZM74.51875 61.791664Q74.51875 60.416664 74.12813 59.791664Q73.75313 59.15104 72.90938 59.15104Q72.08125 59.15104 71.69063 59.791664Q71.31563 60.416664 71.31563 61.71354L71.31563 63.447914Q71.31563 64.822914 71.70625 65.49479Q72.1125 66.15104 72.925 66.15104Q73.72188 66.15104 74.1125 65.52604Q74.50313 64.90104 74.51875 63.572914L74.51875 61.791664ZM82.6125 63.27604Q82.6125 65.18229 81.95625 66.11979Q81.31563 67.041664 79.925 67.041664Q78.56563 67.041664 77.90938 66.135414Q77.25313 65.229164 77.22188 63.416664L77.22188 61.979164Q77.22188 60.08854 77.8625 59.18229Q78.51875 58.260414 79.90938 58.260414Q81.28438 58.260414 81.94063 59.15104Q82.59688 60.02604 82.6125 61.86979L82.6125 63.27604ZM81.51875 61.791664Q81.51875 60.416664 81.12813 59.791664Q80.75313 59.15104 79.90938 59.15104Q79.08125 59.15104 78.69063 59.791664Q78.31563 60.416664 78.31563 61.71354L78.31563 63.447914Q78.31563 64.822914 78.70625 65.49479Q79.1125 66.15104 79.925 66.15104Q80.72188 66.15104 81.1125 65.52604Q81.50313 64.90104 81.51875 63.572914L81.51875 61.791664ZM89.6125 63.27604Q89.6125 65.18229 88.95625 66.11979Q88.31563 67.041664 86.925 67.041664Q85.56563 67.041664 84.90938 66.135414Q84.25313 65.229164 84.22188 63.416664L84.22188 61.979164Q84.22188 60.08854 84.8625 59.18229Q85.51875 58.260414 86.90938 58.260414Q88.28438 58.260414 88.94063 59.15104Q89.59688 60.02604 89.6125 61.86979L89.6125 63.27604ZM88.51875 61.791664Q88.51875 60.416664 88.12813 59.791664Q87.75313 59.15104 86.90938 59.15104Q86.08125 59.15104 85.69063 59.791664Q85.31563 60.416664 85.31563 61.71354L85.31563 63.447914Q85.31563 64.822914 85.70625 65.49479Q86.1125 66.15104 86.925 66.15104Q87.72188 66.15104 88.1125 65.52604Q88.50313 64.90104 88.51875 63.572914L88.51875 61.791664ZM96.6125 63.27604Q96.6125 65.18229 95.95625 66.11979Q95.31563 67.041664 93.925 67.041664Q92.56563 67.041664 91.90938 66.135414Q91.25313 65.229164 91.22188 63.416664L91.22188 61.979164Q91.22188 60.08854 91.8625 59.18229Q92.51875 58.260414 93.90938 58.260414Q95.28438 58.260414 95.94063 59.15104Q96.59688 60.02604 96.6125 61.86979L96.6125 63.27604ZM95.51875 61.791664Q95.51875 60.416664 95.12813 59.791664Q94.75313 59.15104 93.90938 59.15104Q93.08125 59.15104 92.69063 59.791664Q92.31563 60.416664 92.31563 61.71354L92.31563 63.447914Q92.31563 64.822914 92.70625 65.49479Q93.1125 66.15104 93.925 66.15104Q94.72188 66.15104 95.1125 65.52604Q95.50313 64.90104 95.51875 63.572914L95.51875 61.791664Z" fill-rule="nonzero"/><path fill="#757575" d="M152.84914 316.45L147.25539 316.45L147.25539 315.66876L150.20851 312.3875Q150.86476 311.6375 151.11476 311.1844Q151.36476 310.71564 151.36476 310.21564Q151.36476 309.54376 150.95851 309.1219Q150.56789 308.6844 149.88039 308.6844Q149.08351 308.6844 148.63039 309.15314Q148.17726 309.60626 148.17726 310.4344L147.09914 310.4344Q147.09914 309.2469 147.84914 308.52814Q148.61476 307.79376 149.88039 307.79376Q151.08351 307.79376 151.77101 308.41876Q152.45851 309.04376 152.45851 310.09064Q152.45851 311.34064 150.84914 313.09064L148.56789 315.5594L152.84914 315.5594L152.84914 316.45ZM154.39601 315.8875Q154.39601 315.60626 154.55226 315.41876Q154.72414 315.23126 155.05226 315.23126Q155.39601 315.23126 155.56789 315.41876Q155.73976 315.60626 155.73976 315.8875Q155.73976 316.15314 155.56789 316.34064Q155.39601 316.5125 155.05226 316.5125Q154.72414 316.5125 154.55226 316.34064Q154.39601 316.15314 154.39601 315.8875ZM162.61476 312.8094Q162.61476 314.71564 161.95851 315.65314Q161.31789 316.575 159.92726 316.575Q158.56789 316.575 157.91164 315.66876Q157.25539 314.7625 157.22414 312.95L157.22414 311.5125Q157.22414 309.6219 157.86476 308.71564Q158.52101 307.79376 159.91164 307.79376Q161.28664 307.79376 161.94289 308.6844Q162.59914 309.5594 162.61476 311.40314L162.61476 312.8094ZM161.52101 311.325Q161.52101 309.95 161.13039 309.325Q160.75539 308.6844 159.91164 308.6844Q159.08351 308.6844 158.69289 309.325Q158.31789 309.95 158.31789 311.2469L158.31789 312.98126Q158.31789 314.35626 158.70851 315.02814Q159.11476 315.6844 159.92726 315.6844Q160.72414 315.6844 161.11476 315.0594Q161.50539 314.4344 161.52101 313.10626L161.52101 311.325ZM169.36476 312.5125L165.66164 312.5125L165.66164 315.52814L169.95851 315.52814L169.95851 316.45L164.53664 316.45L164.53664 307.91876L169.91164 307.91876L169.91164 308.84064L165.66164 308.84064L165.66164 311.59064L169.36476 311.59064L169.36476 312.5125ZM174.47414 311.8719L176.86476 311.8719L176.86476 312.90314L174.47414 312.90314L174.47414 315.59064L173.39601 315.59064L173.39601 312.90314L171.00539 312.90314L171.00539 311.8719L173.39601 311.8719L173.39601 309.3875L174.47414 309.3875L174.47414 311.8719ZM182.52101 307.91876L182.52101 308.825L182.31789 308.825Q181.05226 308.85626 180.30226 309.59064Q179.55226 310.3094 179.42726 311.6219Q180.11476 310.85626 181.27101 310.85626Q182.38039 310.85626 183.05226 311.6375Q183.72414 312.41876 183.72414 313.66876Q183.72414 314.98126 183.00539 315.77814Q182.28664 316.575 181.06789 316.575Q179.84914 316.575 179.08351 315.6375Q178.33351 314.6844 178.33351 313.2L178.33351 312.79376Q178.33351 310.4344 179.33351 309.1844Q180.33351 307.9344 182.31789 307.91876L182.52101 307.91876ZM181.09914 311.7625Q180.53664 311.7625 180.06789 312.09064Q179.59914 312.41876 179.41164 312.9344L179.41164 313.325Q179.41164 314.3875 179.88039 315.02814Q180.36476 315.66876 181.06789 315.66876Q181.80226 315.66876 182.22414 315.1375Q182.64601 314.59064 182.64601 313.71564Q182.64601 312.84064 182.22414 312.3094Q181.80226 311.7625 181.09914 311.7625Z" fill-rule="nonzero"/><path fill="#757575" d="M217.09906 313.59064L218.28656 313.59064L218.28656 314.46564L217.09906 314.46564L217.09906 316.45L216.02094 316.45L216.02094 314.46564L212.13031 314.46564L212.13031 313.825L215.94281 307.91876L217.09906 307.91876L217.09906 313.59064ZM213.36469 313.59064L216.02094 313.59064L216.02094 309.40314L215.88031 309.6375L213.36469 313.59064ZM219.66156 315.8875Q219.66156 315.60626 219.81781 315.41876Q219.98969 315.23126 220.31781 315.23126Q220.66156 315.23126 220.83344 315.41876Q221.00531 315.60626 221.00531 315.8875Q221.00531 316.15314 220.83344 316.34064Q220.66156 316.5125 220.31781 316.5125Q219.98969 316.5125 219.81781 316.34064Q219.66156 316.15314 219.66156 315.8875ZM227.88031 312.8094Q227.88031 314.71564 227.22406 315.65314Q226.58344 316.575 225.19281 316.575Q223.83344 316.575 223.17719 315.66876Q222.52094 314.7625 222.48969 312.95L222.48969 311.5125Q222.48969 309.6219 223.13031 308.71564Q223.78656 307.79376 225.17719 307.79376Q226.55219 307.79376 227.20844 308.6844Q227.86469 309.5594 227.88031 311.40314L227.88031 312.8094ZM226.78656 311.325Q226.78656 309.95 226.39594 309.325Q226.02094 308.6844 225.17719 308.6844Q224.34906 308.6844 223.95844 309.325Q223.58344 309.95 223.58344 311.2469L223.58344 312.98126Q223.58344 314.35626 223.97406 315.02814Q224.38031 315.6844 225.19281 315.6844Q225.98969 315.6844 226.38031 315.0594Q226.77094 314.4344 226.78656 313.10626L226.78656 311.325ZM234.63031 312.5125L230.92719 312.5125L230.92719 315.52814L235.22406 315.52814L235.22406 316.45L229.80219 316.45L229.80219 307.91876L235.17719 307.91876L235.17719 308.84064L230.92719 308.84064L230.92719 311.59064L234.63031 311.59064L234.63031 312.5125ZM239.73969 311.8719L242.13031 311.8719L242.13031 312.90314L239.73969 312.90314L239.73969 315.59064L238.66156 315.59064L238.66156 312.90314L236.27094 312.90314L236.27094 311.8719L238.66156 311.8719L238.66156 309.3875L239.73969 309.3875L239.73969 311.8719ZM247.78656 307.91876L247.78656 308.825L247.58344 308.825Q246.31781 308.85626 245.56781 309.59064Q244.81781 310.3094 244.69281 311.6219Q245.38031 310.85626 246.53656 310.85626Q247.64594 310.85626 248.31781 311.6375Q248.98969 312.41876 248.98969 313.66876Q248.98969 314.98126 248.27094 315.77814Q247.55219 316.575 246.33344 316.575Q245.11469 316.575 244.34906 315.6375Q243.59906 314.6844 243.59906 313.2L243.59906 312.79376Q243.59906 310.4344 244.59906 309.1844Q245.59906 307.9344 247.58344 307.91876L247.78656 307.91876ZM246.36469 311.7625Q245.80219 311.7625 245.33344 312.09064Q244.86469 312.41876 244.67719 312.9344L244.67719 313.325Q244.67719 314.3875 245.14594 315.02814Q245.63031 315.66876 246.33344 315.66876Q247.06781 315.66876 247.48969 315.1375Q247.91156 314.59064 247.91156 313.71564Q247.91156 312.84064 247.48969 312.3094Q247.06781 311.7625 246.36469 311.7625Z" fill-rule="nonzero"/><path fill="#757575" d="M282.0521 307.91876L282.0521 308.825L281.84897 308.825Q280.58334 308.85626 279.83334 309.59064Q279.08334 310.3094 278.95834 311.6219Q279.64584 310.85626 280.8021 310.85626Q281.91147 310.85626 282.58334 311.6375Q283.25522 312.41876 283.25522 313.66876Q283.25522 314.98126 282.53647 315.77814Q281.81772 316.575 280.59897 316.575Q279.38022 316.575 278.6146 315.6375Q277.8646 314.6844 277.8646 313.2L277.8646 312.79376Q277.8646 310.4344 278.8646 309.1844Q279.8646 307.9344 281.84897 307.91876L282.0521 307.91876ZM280.63022 311.7625Q280.06772 311.7625 279.59897 312.09064Q279.13022 312.41876 278.94272 312.9344L278.94272 313.325Q278.94272 314.3875 279.41147 315.02814Q279.89584 315.66876 280.59897 315.66876Q281.33334 315.66876 281.75522 315.1375Q282.1771 314.59064 282.1771 313.71564Q282.1771 312.84064 281.75522 312.3094Q281.33334 311.7625 280.63022 311.7625ZM284.9271 315.8875Q284.9271 315.60626 285.08334 315.41876Q285.25522 315.23126 285.58334 315.23126Q285.9271 315.23126 286.09897 315.41876Q286.27084 315.60626 286.27084 315.8875Q286.27084 316.15314 286.09897 316.34064Q285.9271 316.5125 285.58334 316.5125Q285.25522 316.5125 285.08334 316.34064Q284.9271 316.15314 284.9271 315.8875ZM293.14584 312.8094Q293.14584 314.71564 292.4896 315.65314Q291.84897 316.575 290.45834 316.575Q289.09897 316.575 288.44272 315.66876Q287.78647 314.7625 287.75522 312.95L287.75522 311.5125Q287.75522 309.6219 288.39584 308.71564Q289.0521 307.79376 290.44272 307.79376Q291.81772 307.79376 292.47397 308.6844Q293.13022 309.5594 293.14584 311.40314L293.14584 312.8094ZM292.0521 311.325Q292.0521 309.95 291.66147 309.325Q291.28647 308.6844 290.44272 308.6844Q289.6146 308.6844 289.22397 309.325Q288.84897 309.95 288.84897 311.2469L288.84897 312.98126Q288.84897 314.35626 289.2396 315.02814Q289.64584 315.6844 290.45834 315.6844Q291.25522 315.6844 291.64584 315.0594Q292.03647 314.4344 292.0521 313.10626L292.0521 311.325ZM299.89584 312.5125L296.19272 312.5125L296.19272 315.52814L300.4896 315.52814L300.4896 316.45L295.06772 316.45L295.06772 307.91876L300.44272 307.91876L300.44272 308.84064L296.19272 308.84064L296.19272 311.59064L299.89584 311.59064L299.89584 312.5125ZM305.00522 311.8719L307.39584 311.8719L307.39584 312.90314L305.00522 312.90314L305.00522 315.59064L303.9271 315.59064L303.9271 312.90314L301.53647 312.90314L301.53647 311.8719L303.9271 311.8719L303.9271 309.3875L305.00522 309.3875L305.00522 311.8719ZM313.0521 307.91876L313.0521 308.825L312.84897 308.825Q311.58334 308.85626 310.83334 309.59064Q310.08334 310.3094 309.95834 311.6219Q310.64584 310.85626 311.8021 310.85626Q312.91147 310.85626 313.58334 311.6375Q314.25522 312.41876 314.25522 313.66876Q314.25522 314.98126 313.53647 315.77814Q312.81772 316.575 311.59897 316.575Q310.38022 316.575 309.6146 315.6375Q308.8646 314.6844 308.8646 313.2L308.8646 312.79376Q308.8646 310.4344 309.8646 309.1844Q310.8646 307.9344 312.84897 307.91876L313.0521 307.91876ZM311.63022 311.7625Q311.06772 311.7625 310.59897 312.09064Q310.13022 312.41876 309.94272 312.9344L309.94272 313.325Q309.94272 314.3875 310.41147 315.02814Q310.89584 315.66876 311.59897 315.66876Q312.33334 315.66876 312.75522 315.1375Q313.1771 314.59064 313.1771 313.71564Q313.1771 312.84064 312.75522 312.3094Q312.33334 311.7625 311.63022 311.7625Z" fill-rule="nonzero"/><path fill="#757575" d="M348.23953 310.1375Q348.23953 310.77814 347.89578 311.27814Q347.55203 311.77814 346.98953 312.0594Q347.64578 312.34064 348.0364 312.90314Q348.42703 313.45 348.42703 314.15314Q348.42703 315.2469 347.67703 315.91876Q346.94266 316.575 345.7239 316.575Q344.48953 316.575 343.73953 315.91876Q343.00516 315.2469 343.00516 314.15314Q343.00516 313.45 343.38016 312.90314Q343.75516 312.34064 344.42703 312.0594Q343.86453 311.77814 343.5364 311.27814Q343.20828 310.77814 343.20828 310.1375Q343.20828 309.0594 343.89578 308.4344Q344.58328 307.79376 345.7239 307.79376Q346.8489 307.79376 347.5364 308.4344Q348.23953 309.0594 348.23953 310.1375ZM347.3489 314.1219Q347.3489 313.40314 346.89578 312.96564Q346.44266 312.5125 345.70828 312.5125Q344.9739 312.5125 344.52078 312.96564Q344.08328 313.40314 344.08328 314.1375Q344.08328 314.85626 344.52078 315.27814Q344.95828 315.6844 345.7239 315.6844Q346.4739 315.6844 346.9114 315.2625Q347.3489 314.84064 347.3489 314.1219ZM345.7239 308.6844Q345.08328 308.6844 344.67703 309.09064Q344.2864 309.48126 344.2864 310.16876Q344.2864 310.8094 344.67703 311.21564Q345.06766 311.6219 345.70828 311.6219Q346.36453 311.6219 346.75516 311.21564Q347.14578 310.8094 347.14578 310.16876Q347.14578 309.5125 346.73953 309.10626Q346.33328 308.6844 345.7239 308.6844ZM350.19266 315.8875Q350.19266 315.60626 350.3489 315.41876Q350.52078 315.23126 350.8489 315.23126Q351.19266 315.23126 351.36453 315.41876Q351.5364 315.60626 351.5364 315.8875Q351.5364 316.15314 351.36453 316.34064Q351.19266 316.5125 350.8489 316.5125Q350.52078 316.5125 350.3489 316.34064Q350.19266 316.15314 350.19266 315.8875ZM358.4114 312.8094Q358.4114 314.71564 357.75516 315.65314Q357.11453 316.575 355.7239 316.575Q354.36453 316.575 353.70828 315.66876Q353.05203 314.7625 353.02078 312.95L353.02078 311.5125Q353.02078 309.6219 353.6614 308.71564Q354.31766 307.79376 355.70828 307.79376Q357.08328 307.79376 357.73953 308.6844Q358.39578 309.5594 358.4114 311.40314L358.4114 312.8094ZM357.31766 311.325Q357.31766 309.95 356.92703 309.325Q356.55203 308.6844 355.70828 308.6844Q354.88016 308.6844 354.48953 309.325Q354.11453 309.95 354.11453 311.2469L354.11453 312.98126Q354.11453 314.35626 354.50516 315.02814Q354.9114 315.6844 355.7239 315.6844Q356.52078 315.6844 356.9114 315.0594Q357.30203 314.4344 357.31766 313.10626L357.31766 311.325ZM365.1614 312.5125L361.45828 312.5125L361.45828 315.52814L365.75516 315.52814L365.75516 316.45L360.33328 316.45L360.33328 307.91876L365.70828 307.91876L365.70828 308.84064L361.45828 308.84064L361.45828 311.59064L365.1614 311.59064L365.1614 312.5125ZM370.27078 311.8719L372.6614 311.8719L372.6614 312.90314L370.27078 312.90314L370.27078 315.59064L369.19266 315.59064L369.19266 312.90314L366.80203 312.90314L366.80203 311.8719L369.19266 311.8719L369.19266 309.3875L370.27078 309.3875L370.27078 311.8719ZM378.31766 307.91876L378.31766 308.825L378.11453 308.825Q376.8489 308.85626 376.0989 309.59064Q375.3489 310.3094 375.2239 311.6219Q375.9114 310.85626 377.06766 310.85626Q378.17703 310.85626 378.8489 311.6375Q379.52078 312.41876 379.52078 313.66876Q379.52078 314.98126 378.80203 315.77814Q378.08328 316.575 376.86453 316.575Q375.64578 316.575 374.88016 315.6375Q374.13016 314.6844 374.13016 313.2L374.13016 312.79376Q374.13016 310.4344 375.13016 309.1844Q376.13016 307.9344 378.11453 307.91876L378.31766 307.91876ZM376.89578 311.7625Q376.33328 311.7625 375.86453 312.09064Q375.39578 312.41876 375.20828 312.9344L375.20828 313.325Q375.20828 314.3875 375.67703 315.02814Q376.1614 315.66876 376.86453 315.66876Q377.5989 315.66876 378.02078 315.1375Q378.44266 314.59064 378.44266 313.71564Q378.44266 312.84064 378.02078 312.3094Q377.5989 311.7625 376.89578 311.7625Z" fill-rule="nonzero"/><path fill="#757575" d="M411.88007 316.45L410.80194 316.45L410.80194 309.23126L408.61444 310.02814L408.61444 309.04376L411.72382 307.8719L411.88007 307.8719L411.88007 316.45ZM415.4582 315.8875Q415.4582 315.60626 415.61444 315.41876Q415.78632 315.23126 416.11444 315.23126Q416.4582 315.23126 416.63007 315.41876Q416.80194 315.60626 416.80194 315.8875Q416.80194 316.15314 416.63007 316.34064Q416.4582 316.5125 416.11444 316.5125Q415.78632 316.5125 415.61444 316.34064Q415.4582 316.15314 415.4582 315.8875ZM423.67694 312.8094Q423.67694 314.71564 423.0207 315.65314Q422.38007 316.575 420.98944 316.575Q419.63007 316.575 418.97382 315.66876Q418.31757 314.7625 418.28632 312.95L418.28632 311.5125Q418.28632 309.6219 418.92694 308.71564Q419.5832 307.79376 420.97382 307.79376Q422.34882 307.79376 423.00507 308.6844Q423.66132 309.5594 423.67694 311.40314L423.67694 312.8094ZM422.5832 311.325Q422.5832 309.95 422.19257 309.325Q421.81757 308.6844 420.97382 308.6844Q420.1457 308.6844 419.75507 309.325Q419.38007 309.95 419.38007 311.2469L419.38007 312.98126Q419.38007 314.35626 419.7707 315.02814Q420.17694 315.6844 420.98944 315.6844Q421.78632 315.6844 422.17694 315.0594Q422.56757 314.4344 422.5832 313.10626L422.5832 311.325ZM430.42694 312.5125L426.72382 312.5125L426.72382 315.52814L431.0207 315.52814L431.0207 316.45L425.59882 316.45L425.59882 307.91876L430.97382 307.91876L430.97382 308.84064L426.72382 308.84064L426.72382 311.59064L430.42694 311.59064L430.42694 312.5125ZM435.53632 311.8719L437.92694 311.8719L437.92694 312.90314L435.53632 312.90314L435.53632 315.59064L434.4582 315.59064L434.4582 312.90314L432.06757 312.90314L432.06757 311.8719L434.4582 311.8719L434.4582 309.3875L435.53632 309.3875L435.53632 311.8719ZM444.8332 308.52814L441.30194 316.45L440.16132 316.45L443.67694 308.8094L439.06757 308.8094L439.06757 307.91876L444.8332 307.91876L444.8332 308.52814Z" fill-rule="nonzero"/><path stroke="#4285f4" stroke-width="4.0" stroke-linecap="butt" d="M446.45 62.416668L458.45 62.416668" fill-rule="nonzero"/><path fill="#757575" d="M472.15314 64.68229L468.575 64.68229L467.77814 66.916664L466.6219 66.916664L469.8719 58.385414L470.85626 58.385414L474.1219 66.916664L472.96564 66.916664L472.15314 64.68229ZM468.91876 63.760414L471.825 63.760414L470.3719 59.77604L468.91876 63.760414ZM478.34064 61.541664Q478.09064 61.510414 477.8094 61.510414Q476.73126 61.510414 476.35626 62.416664L476.35626 66.916664L475.27814 66.916664L475.27814 60.572914L476.325 60.572914L476.34064 61.30729Q476.8719 60.46354 477.85626 60.46354Q478.16876 60.46354 478.34064 60.541664L478.34064 61.541664ZM482.34064 61.541664Q482.09064 61.510414 481.8094 61.510414Q480.73126 61.510414 480.35626 62.416664L480.35626 66.916664L479.27814 66.916664L479.27814 60.572914L480.325 60.572914L480.34064 61.30729Q480.8719 60.46354 481.85626 60.46354Q482.16876 60.46354 482.34064 60.541664L482.34064 61.541664ZM487.1844 66.916664Q487.09064 66.729164 487.02814 66.24479Q486.27814 67.041664 485.23126 67.041664Q484.29376 67.041664 483.6844 66.510414Q483.09064 65.979164 483.09064 65.15104Q483.09064 64.166664 483.84064 63.61979Q484.59064 63.072914 485.96564 63.072914L487.0125 63.072914L487.0125 62.572914Q487.0125 62.010414 486.66876 61.68229Q486.34064 61.33854 485.66876 61.33854Q485.09064 61.33854 484.7 61.635414Q484.3094 61.916664 484.3094 62.33854L483.21564 62.33854Q483.21564 61.854164 483.54376 61.416664Q483.8875 60.979164 484.46564 60.729164Q485.04376 60.46354 485.73126 60.46354Q486.84064 60.46354 487.45 61.010414Q488.075 61.55729 488.10626 62.510414L488.10626 65.43229Q488.10626 66.30729 488.325 66.822914L488.325 66.916664L487.1844 66.916664ZM485.3875 66.08854Q485.90314 66.08854 486.35626 65.822914Q486.8094 65.55729 487.0125 65.135414L487.0125 63.83854L486.16876 63.83854Q484.16876 63.83854 484.16876 65.010414Q484.16876 65.510414 484.5125 65.80729Q484.85626 66.08854 485.3875 66.08854ZM492.34064 65.322914L493.825 60.572914L494.98126 60.572914L492.4344 67.90104Q491.84064 69.479164 490.5594 69.479164L490.34064 69.46354L489.95 69.385414L489.95 68.510414L490.23126 68.52604Q490.79376 68.52604 491.09064 68.30729Q491.40314 68.08854 491.60626 67.49479L491.84064 66.83854L489.575 60.572914L490.7625 60.572914L492.34064 65.322914Z" fill-rule="nonzero"/><path stroke="#db4437" stroke-width="4.0" stroke-linecap="butt" d="M446.45 87.416664L458.45 87.416664" fill-rule="nonzero"/><path fill="#757575" d="M473.71564 89.21354Q473.5594 90.55729 472.71564 91.30729Q471.8719 92.041664 470.48126 92.041664Q468.96564 92.041664 468.0594 90.96354Q467.15314 89.86979 467.15314 88.041664L467.15314 87.229164Q467.15314 86.041664 467.575 85.135414Q467.9969 84.229164 468.77814 83.74479Q469.5594 83.260414 470.575 83.260414Q471.9344 83.260414 472.7469 84.02604Q473.575 84.791664 473.71564 86.11979L472.59064 86.11979Q472.4344 85.104164 471.95 84.65104Q471.46564 84.197914 470.575 84.197914Q469.4969 84.197914 468.8875 84.99479Q468.27814 85.791664 468.27814 87.260414L468.27814 88.08854Q468.27814 89.479164 468.85626 90.30729Q469.4344 91.11979 470.48126 91.11979Q471.41876 91.11979 471.91876 90.697914Q472.41876 90.260414 472.59064 89.21354L473.71564 89.21354ZM474.98126 88.68229Q474.98126 87.760414 475.34064 87.010414Q475.71564 86.260414 476.3719 85.86979Q477.02814 85.46354 477.85626 85.46354Q479.15314 85.46354 479.95 86.354164Q480.7625 87.24479 480.7625 88.74479L480.7625 88.822914Q480.7625 89.74479 480.40314 90.479164Q480.04376 91.21354 479.3875 91.635414Q478.73126 92.041664 477.8719 92.041664Q476.59064 92.041664 475.77814 91.15104Q474.98126 90.24479 474.98126 88.760414L474.98126 88.68229ZM476.075 88.822914Q476.075 89.86979 476.5594 90.510414Q477.0594 91.15104 477.8719 91.15104Q478.7 91.15104 479.1844 90.510414Q479.66876 89.854164 479.66876 88.68229Q479.66876 87.65104 479.16876 87.010414Q478.6844 86.354164 477.85626 86.354164Q477.0594 86.354164 476.5594 86.99479Q476.075 87.61979 476.075 88.822914ZM483.29376 85.572914L483.325 86.36979Q484.0594 85.46354 485.23126 85.46354Q487.2469 85.46354 487.2625 87.729164L487.2625 91.916664L486.16876 91.916664L486.16876 87.71354Q486.16876 87.041664 485.85626 86.71354Q485.5594 86.385414 484.90314 86.385414Q484.3719 86.385414 483.96564 86.666664Q483.575 86.947914 483.35626 87.40104L483.35626 91.916664L482.27814 91.916664L482.27814 85.572914L483.29376 85.572914ZM491.8094 91.15104Q492.3875 91.15104 492.825 90.80729Q493.2625 90.447914 493.3094 89.916664L494.34064 89.916664Q494.3094 90.46354 493.95 90.96354Q493.60626 91.447914 493.02814 91.74479Q492.46564 92.041664 491.8094 92.041664Q490.5125 92.041664 489.7469 91.18229Q488.9969 90.30729 488.9969 88.80729L488.9969 88.61979Q488.9969 87.697914 489.325 86.979164Q489.66876 86.260414 490.29376 85.86979Q490.9344 85.46354 491.8094 85.46354Q492.8719 85.46354 493.575 86.104164Q494.29376 86.729164 494.34064 87.760414L493.3094 87.760414Q493.2625 87.135414 492.84064 86.74479Q492.41876 86.354164 491.8094 86.354164Q490.98126 86.354164 490.52814 86.947914Q490.075 87.541664 490.075 88.666664L490.075 88.86979Q490.075 89.96354 490.52814 90.55729Q490.98126 91.15104 491.8094 91.15104ZM499.1844 91.291664Q498.5594 92.041664 497.325 92.041664Q496.3094 92.041664 495.77814 91.447914Q495.2469 90.854164 495.2469 89.697914L495.2469 85.572914L496.325 85.572914L496.325 89.666664Q496.325 91.11979 497.4969 91.11979Q498.7469 91.11979 499.15314 90.18229L499.15314 85.572914L500.2469 85.572914L500.2469 91.916664L499.21564 91.916664L499.1844 91.291664ZM505.34064 86.541664Q505.09064 86.510414 504.8094 86.510414Q503.73126 86.510414 503.35626 87.416664L503.35626 91.916664L502.27814 91.916664L502.27814 85.572914L503.325 85.572914L503.34064 86.30729Q503.8719 85.46354 504.85626 85.46354Q505.16876 85.46354 505.34064 85.541664L505.34064 86.541664ZM509.34064 86.541664Q509.09064 86.510414 508.8094 86.510414Q507.73126 86.510414 507.35626 87.416664L507.35626 91.916664L506.27814 91.916664L506.27814 85.572914L507.325 85.572914L507.34064 86.30729Q507.8719 85.46354 508.85626 85.46354Q509.16876 85.46354 509.34064 85.541664L509.34064 86.541664ZM512.90314 92.041664Q511.60626 92.041664 510.79376 91.197914Q509.9969 90.33854 509.9969 88.916664L509.9969 88.729164Q509.9969 87.77604 510.35626 87.041664Q510.71564 86.291664 511.35626 85.885414Q512.0125 85.46354 512.7625 85.46354Q513.9969 85.46354 514.6844 86.27604Q515.3719 87.08854 515.3719 88.604164L515.3719 89.05729L511.075 89.05729Q511.10626 89.99479 511.6219 90.572914Q512.15314 91.15104 512.96564 91.15104Q513.52814 91.15104 513.91876 90.916664Q514.325 90.68229 514.6375 90.291664L515.29376 90.80729Q514.4969 92.041664 512.90314 92.041664ZM512.7625 86.354164Q512.10626 86.354164 511.65314 86.83854Q511.21564 87.30729 511.1219 88.166664L514.29376 88.166664L514.29376 88.08854Q514.2469 87.260414 513.84064 86.80729Q513.45 86.354164 512.7625 86.354164ZM517.29376 85.572914L517.325 86.36979Q518.0594 85.46354 519.23126 85.46354Q521.2469 85.46354 521.2625 87.729164L521.2625 91.916664L520.16876 91.916664L520.16876 87.71354Q520.16876 87.041664 519.85626 86.71354Q519.5594 86.385414 518.90314 86.385414Q518.3719 86.385414 517.96564 86.666664Q517.575 86.947914 517.35626 87.40104L517.35626 91.916664L516.27814 91.916664L516.27814 85.572914L517.29376 85.572914ZM524.7469 84.041664L524.7469 85.572914L525.91876 85.572914L525.91876 86.416664L524.7469 86.416664L524.7469 90.33854Q524.7469 90.729164 524.90314 90.916664Q525.0594 91.104164 525.4344 91.104164Q525.6219 91.104164 525.95 91.041664L525.95 91.916664Q525.52814 92.041664 525.1219 92.041664Q524.40314 92.041664 524.02814 91.604164Q523.65314 91.15104 523.65314 90.33854L523.65314 86.416664L522.4969 86.416664L522.4969 85.572914L523.65314 85.572914L523.65314 84.041664L524.7469 84.041664ZM527.4344 91.916664L527.4344 83.385414L529.85626 83.385414Q530.96564 83.385414 531.8094 83.885414Q532.66876 84.36979 533.1375 85.27604Q533.60626 86.18229 533.60626 87.36979L533.60626 87.90104Q533.60626 89.11979 533.1375 90.02604Q532.6844 90.93229 531.8094 91.416664Q530.95 91.90104 529.8094 91.916664L527.4344 91.916664ZM528.5594 84.30729L528.5594 90.99479L529.7469 90.99479Q531.04376 90.99479 531.7625 90.197914Q532.4969 89.385414 532.4969 87.885414L532.4969 87.385414Q532.4969 85.93229 531.8094 85.135414Q531.1375 84.322914 529.8719 84.30729L528.5594 84.30729ZM536.45 91.916664L535.3719 91.916664L535.3719 85.572914L536.45 85.572914L536.45 91.916664ZM535.27814 83.90104Q535.27814 83.635414 535.4344 83.447914Q535.60626 83.260414 535.91876 83.260414Q536.23126 83.260414 536.3875 83.447914Q536.5594 83.635414 536.5594 83.90104Q536.5594 84.15104 536.3875 84.33854Q536.23126 84.510414 535.91876 84.510414Q535.60626 84.510414 535.4344 84.33854Q535.27814 84.15104 535.27814 83.90104ZM540.8094 91.15104Q541.3875 91.15104 541.825 90.80729Q542.2625 90.447914 542.3094 89.916664L543.34064 89.916664Q543.3094 90.46354 542.95 90.96354Q542.60626 91.447914 542.02814 91.74479Q541.46564 92.041664 540.8094 92.041664Q539.5125 92.041664 538.7469 91.18229Q537.9969 90.30729 537.9969 88.80729L537.9969 88.61979Q537.9969 87.697914 538.325 86.979164Q538.66876 86.260414 539.29376 85.86979Q539.9344 85.46354 540.8094 85.46354Q541.8719 85.46354 542.575 86.104164Q543.29376 86.729164 543.34064 87.760414L542.3094 87.760414Q542.2625 87.135414 541.84064 86.74479Q541.41876 86.354164 540.8094 86.354164Q539.98126 86.354164 539.52814 86.947914Q539.075 87.541664 539.075 88.666664L539.075 88.86979Q539.075 89.96354 539.52814 90.55729Q539.98126 91.15104 540.8094 91.15104ZM545.7469 84.041664L545.7469 85.572914L546.91876 85.572914L546.91876 86.416664L545.7469 86.416664L545.7469 90.33854Q545.7469 90.729164 545.90314 90.916664Q546.0594 91.104164 546.4344 91.104164Q546.6219 91.104164 546.95 91.041664L546.95 91.916664Q546.52814 92.041664 546.1219 92.041664Q545.40314 92.041664 545.02814 91.604164Q544.65314 91.15104 544.65314 90.33854L544.65314 86.416664L543.4969 86.416664L543.4969 85.572914L544.65314 85.572914L544.65314 84.041664L545.7469 84.041664ZM549.45 91.916664L548.3719 91.916664L548.3719 85.572914L549.45 85.572914L549.45 91.916664ZM548.27814 83.90104Q548.27814 83.635414 548.4344 83.447914Q548.60626 83.260414 548.91876 83.260414Q549.23126 83.260414 549.3875 83.447914Q549.5594 83.635414 549.5594 83.90104Q549.5594 84.15104 549.3875 84.33854Q549.23126 84.510414 548.91876 84.510414Q548.60626 84.510414 548.4344 84.33854Q548.27814 84.15104 548.27814 83.90104ZM550.98126 88.68229Q550.98126 87.760414 551.34064 87.010414Q551.71564 86.260414 552.3719 85.86979Q553.02814 85.46354 553.85626 85.46354Q555.15314 85.46354 555.95 86.354164Q556.7625 87.24479 556.7625 88.74479L556.7625 88.822914Q556.7625 89.74479 556.40314 90.479164Q556.04376 91.21354 555.3875 91.635414Q554.73126 92.041664 553.8719 92.041664Q552.59064 92.041664 551.77814 91.15104Q550.98126 90.24479 550.98126 88.760414L550.98126 88.68229ZM552.075 88.822914Q552.075 89.86979 552.5594 90.510414Q553.0594 91.15104 553.8719 91.15104Q554.7 91.15104 555.1844 90.510414Q555.66876 89.854164 555.66876 88.68229Q555.66876 87.65104 555.16876 87.010414Q554.6844 86.354164 553.85626 86.354164Q553.0594 86.354164 552.5594 86.99479Q552.075 87.61979 552.075 88.822914ZM559.29376 85.572914L559.325 86.36979Q560.0594 85.46354 561.23126 85.46354Q563.2469 85.46354 563.2625 87.729164L563.2625 91.916664L562.16876 91.916664L562.16876 87.71354Q562.16876 87.041664 561.85626 86.71354Q561.5594 86.385414 560.90314 86.385414Q560.3719 86.385414 559.96564 86.666664Q559.575 86.947914 559.35626 87.40104L559.35626 91.916664L558.27814 91.916664L558.27814 85.572914L559.29376 85.572914ZM569.1844 91.916664Q569.09064 91.729164 569.02814 91.24479Q568.27814 92.041664 567.23126 92.041664Q566.29376 92.041664 565.6844 91.510414Q565.09064 90.979164 565.09064 90.15104Q565.09064 89.166664 565.84064 88.61979Q566.59064 88.072914 567.96564 88.072914L569.0125 88.072914L569.0125 87.572914Q569.0125 87.010414 568.66876 86.68229Q568.34064 86.33854 567.66876 86.33854Q567.09064 86.33854 566.7 86.635414Q566.3094 86.916664 566.3094 87.33854L565.21564 87.33854Q565.21564 86.854164 565.54376 86.416664Q565.8875 85.979164 566.46564 85.729164Q567.04376 85.46354 567.73126 85.46354Q568.84064 85.46354 569.45 86.010414Q570.075 86.55729 570.10626 87.510414L570.10626 90.43229Q570.10626 91.30729 570.325 91.822914L570.325 91.916664L569.1844 91.916664ZM567.3875 91.08854Q567.90314 91.08854 568.35626 90.822914Q568.8094 90.55729 569.0125 90.135414L569.0125 88.83854L568.16876 88.83854Q566.16876 88.83854 566.16876 90.010414Q566.16876 90.510414 566.5125 90.80729Q566.85626 91.08854 567.3875 91.08854ZM575.34064 86.541664Q575.09064 86.510414 574.8094 86.510414Q573.73126 86.510414 573.35626 87.416664L573.35626 91.916664L572.27814 91.916664L572.27814 85.572914L573.325 85.572914L573.34064 86.30729Q573.8719 85.46354 574.85626 85.46354Q575.16876 85.46354 575.34064 85.541664L575.34064 86.541664ZM578.34064 90.322914L579.825 85.572914L580.98126 85.572914L578.4344 92.90104Q577.84064 94.479164 576.5594 94.479164L576.34064 94.46354L575.95 94.385414L575.95 93.510414L576.23126 93.52604Q576.79376 93.52604 577.09064 93.30729Q577.40314 93.08854 577.60626 92.49479L577.84064 91.83854L575.575 85.572914L576.7625 85.572914L578.34064 90.322914Z" fill-rule="nonzero"/><path stroke="#f4b400" stroke-width="4.0" stroke-linecap="butt" d="M446.45 112.416664L458.45 112.416664" fill-rule="nonzero"/><path fill="#757575" d="M467.4344 116.916664L467.4344 108.385414L469.85626 108.385414Q470.96564 108.385414 471.8094 108.885414Q472.66876 109.36979 473.1375 110.27604Q473.60626 111.18229 473.60626 112.36979L473.60626 112.90104Q473.60626 114.11979 473.1375 115.02604Q472.6844 115.93229 471.8094 116.416664Q470.95 116.90104 469.8094 116.916664L467.4344 116.916664ZM468.5594 109.30729L468.5594 115.99479L469.7469 115.99479Q471.04376 115.99479 471.7625 115.197914Q472.4969 114.385414 472.4969 112.885414L472.4969 112.385414Q472.4969 110.93229 471.8094 110.135414Q471.1375 109.322914 469.8719 109.30729L468.5594 109.30729ZM476.45 116.916664L475.3719 116.916664L475.3719 110.572914L476.45 110.572914L476.45 116.916664ZM475.27814 108.90104Q475.27814 108.635414 475.4344 108.447914Q475.60626 108.260414 475.91876 108.260414Q476.23126 108.260414 476.3875 108.447914Q476.5594 108.635414 476.5594 108.90104Q476.5594 109.15104 476.3875 109.33854Q476.23126 109.510414 475.91876 109.510414Q475.60626 109.510414 475.4344 109.33854Q475.27814 109.15104 475.27814 108.90104ZM480.8094 116.15104Q481.3875 116.15104 481.825 115.80729Q482.2625 115.447914 482.3094 114.916664L483.34064 114.916664Q483.3094 115.46354 482.95 115.96354Q482.60626 116.447914 482.02814 116.74479Q481.46564 117.041664 480.8094 117.041664Q479.5125 117.041664 478.7469 116.18229Q477.9969 115.30729 477.9969 113.80729L477.9969 113.61979Q477.9969 112.697914 478.325 111.979164Q478.66876 111.260414 479.29376 110.86979Q479.9344 110.46354 480.8094 110.46354Q481.8719 110.46354 482.575 111.104164Q483.29376 111.729164 483.34064 112.760414L482.3094 112.760414Q482.2625 112.135414 481.84064 111.74479Q481.41876 111.354164 480.8094 111.354164Q479.98126 111.354164 479.52814 111.947914Q479.075 112.541664 479.075 113.666664L479.075 113.86979Q479.075 114.96354 479.52814 115.55729Q479.98126 116.15104 480.8094 116.15104ZM485.7469 109.041664L485.7469 110.572914L486.91876 110.572914L486.91876 111.416664L485.7469 111.416664L485.7469 115.33854Q485.7469 115.729164 485.90314 115.916664Q486.0594 116.104164 486.4344 116.104164Q486.6219 116.104164 486.95 116.041664L486.95 116.916664Q486.52814 117.041664 486.1219 117.041664Q485.40314 117.041664 485.02814 116.604164Q484.65314 116.15104 484.65314 115.33854L484.65314 111.416664L483.4969 111.416664L483.4969 110.572914L484.65314 110.572914L484.65314 109.041664L485.7469 109.041664ZM489.45 116.916664L488.3719 116.916664L488.3719 110.572914L489.45 110.572914L489.45 116.916664ZM488.27814 108.90104Q488.27814 108.635414 488.4344 108.447914Q488.60626 108.260414 488.91876 108.260414Q489.23126 108.260414 489.3875 108.447914Q489.5594 108.635414 489.5594 108.90104Q489.5594 109.15104 489.3875 109.33854Q489.23126 109.510414 488.91876 109.510414Q488.60626 109.510414 488.4344 109.33854Q488.27814 109.15104 488.27814 108.90104ZM490.98126 113.68229Q490.98126 112.760414 491.34064 112.010414Q491.71564 111.260414 492.3719 110.86979Q493.02814 110.46354 493.85626 110.46354Q495.15314 110.46354 495.95 111.354164Q496.7625 112.24479 496.7625 113.74479L496.7625 113.822914Q496.7625 114.74479 496.40314 115.479164Q496.04376 116.21354 495.3875 116.635414Q494.73126 117.041664 493.8719 117.041664Q492.59064 117.041664 491.77814 116.15104Q490.98126 115.24479 490.98126 113.760414L490.98126 113.68229ZM492.075 113.822914Q492.075 114.86979 492.5594 115.510414Q493.0594 116.15104 493.8719 116.15104Q494.7 116.15104 495.1844 115.510414Q495.66876 114.854164 495.66876 113.68229Q495.66876 112.65104 495.16876 112.010414Q494.6844 111.354164 493.85626 111.354164Q493.0594 111.354164 492.5594 111.99479Q492.075 112.61979 492.075 113.822914ZM499.29376 110.572914L499.325 111.36979Q500.0594 110.46354 501.23126 110.46354Q503.2469 110.46354 503.2625 112.729164L503.2625 116.916664L502.16876 116.916664L502.16876 112.71354Q502.16876 112.041664 501.85626 111.71354Q501.5594 111.385414 500.90314 111.385414Q500.3719 111.385414 499.96564 111.666664Q499.575 111.947914 499.35626 112.40104L499.35626 116.916664L498.27814 116.916664L498.27814 110.572914L499.29376 110.572914ZM509.1844 116.916664Q509.09064 116.729164 509.02814 116.24479Q508.27814 117.041664 507.23126 117.041664Q506.29376 117.041664 505.6844 116.510414Q505.09064 115.979164 505.09064 115.15104Q505.09064 114.166664 505.84064 113.61979Q506.59064 113.072914 507.96564 113.072914L509.0125 113.072914L509.0125 112.572914Q509.0125 112.010414 508.66876 111.68229Q508.34064 111.33854 507.66876 111.33854Q507.09064 111.33854 506.7 111.635414Q506.3094 111.916664 506.3094 112.33854L505.21564 112.33854Q505.21564 111.854164 505.54376 111.416664Q505.8875 110.979164 506.46564 110.729164Q507.04376 110.46354 507.73126 110.46354Q508.84064 110.46354 509.45 111.010414Q510.075 111.55729 510.10626 112.510414L510.10626 115.43229Q510.10626 116.30729 510.325 116.822914L510.325 116.916664L509.1844 116.916664ZM507.3875 116.08854Q507.90314 116.08854 508.35626 115.822914Q508.8094 115.55729 509.0125 115.135414L509.0125 113.83854L508.16876 113.83854Q506.16876 113.83854 506.16876 115.010414Q506.16876 115.510414 506.5125 115.80729Q506.85626 116.08854 507.3875 116.08854ZM515.34064 111.541664Q515.09064 111.510414 514.8094 111.510414Q513.73126 111.510414 513.35626 112.416664L513.35626 116.916664L512.27814 116.916664L512.27814 110.572914L513.325 110.572914L513.34064 111.30729Q513.8719 110.46354 514.85626 110.46354Q515.16876 110.46354 515.34064 110.541664L515.34064 111.541664ZM518.34064 115.322914L519.825 110.572914L520.98126 110.572914L518.4344 117.90104Q517.84064 119.479164 516.5594 119.479164L516.34064 119.46354L515.95 119.385414L515.95 118.510414L516.23126 118.52604Q516.79376 118.52604 517.09064 118.30729Q517.40314 118.08854 517.60626 117.49479L517.84064 116.83854L515.575 110.572914L516.7625 110.572914L518.34064 115.322914Z" fill-rule="nonzero"/><path stroke="#0f9d58" stroke-width="4.0" stroke-linecap="butt" d="M446.45 137.41667L458.45 137.41667" fill-rule="nonzero"/><path fill="#757575" d="M468.575 140.9948L472.6219 140.9948L472.6219 141.91667L467.4344 141.91667L467.4344 133.38542L468.575 133.38542L468.575 140.9948ZM474.45 141.91667L473.3719 141.91667L473.3719 135.57292L474.45 135.57292L474.45 141.91667ZM473.27814 133.90105Q473.27814 133.63542 473.4344 133.44792Q473.60626 133.26042 473.91876 133.26042Q474.23126 133.26042 474.3875 133.44792Q474.5594 133.63542 474.5594 133.90105Q474.5594 134.15105 474.3875 134.33855Q474.23126 134.51042 473.91876 134.51042Q473.60626 134.51042 473.4344 134.33855Q473.27814 134.15105 473.27814 133.90105ZM477.29376 135.57292L477.325 136.3698Q478.0594 135.46355 479.23126 135.46355Q481.2469 135.46355 481.2625 137.72917L481.2625 141.91667L480.16876 141.91667L480.16876 137.71355Q480.16876 137.04167 479.85626 136.71355Q479.5594 136.38542 478.90314 136.38542Q478.3719 136.38542 477.96564 136.66667Q477.575 136.94792 477.35626 137.40105L477.35626 141.91667L476.27814 141.91667L476.27814 135.57292L477.29376 135.57292ZM485.04376 138.97917L484.35626 139.6823L484.35626 141.91667L483.27814 141.91667L483.27814 132.91667L484.35626 132.91667L484.35626 138.35417L484.9344 137.66667L486.91876 135.57292L488.23126 135.57292L485.7625 138.22917L488.52814 141.91667L487.2469 141.91667L485.04376 138.97917ZM491.90314 142.04167Q490.60626 142.04167 489.79376 141.19792Q488.9969 140.33855 488.9969 138.91667L488.9969 138.72917Q488.9969 137.77605 489.35626 137.04167Q489.71564 136.29167 490.35626 135.88542Q491.0125 135.46355 491.7625 135.46355Q492.9969 135.46355 493.6844 136.27605Q494.3719 137.08855 494.3719 138.60417L494.3719 139.0573L490.075 139.0573Q490.10626 139.9948 490.6219 140.57292Q491.15314 141.15105 491.96564 141.15105Q492.52814 141.15105 492.91876 140.91667Q493.325 140.6823 493.6375 140.29167L494.29376 140.8073Q493.4969 142.04167 491.90314 142.04167ZM491.7625 136.35417Q491.10626 136.35417 490.65314 136.83855Q490.21564 137.3073 490.1219 138.16667L493.29376 138.16667L493.29376 138.08855Q493.2469 137.26042 492.84064 136.8073Q492.45 136.35417 491.7625 136.35417ZM495.0125 138.69792Q495.0125 137.22917 495.7 136.35417Q496.3875 135.46355 497.5125 135.46355Q498.6219 135.46355 499.27814 136.21355L499.27814 132.91667L500.35626 132.91667L500.35626 141.91667L499.35626 141.91667L499.3094 141.22917Q498.65314 142.04167 497.4969 142.04167Q496.40314 142.04167 495.7 141.13542Q495.0125 140.22917 495.0125 138.77605L495.0125 138.69792ZM496.09064 138.82292Q496.09064 139.90105 496.52814 140.51042Q496.98126 141.1198 497.7625 141.1198Q498.79376 141.1198 499.27814 140.1823L499.27814 137.27605Q498.79376 136.38542 497.77814 136.38542Q496.98126 136.38542 496.52814 136.9948Q496.09064 137.60417 496.09064 138.82292ZM503.575 140.9948L507.6219 140.9948L507.6219 141.91667L502.4344 141.91667L502.4344 133.38542L503.575 133.38542L503.575 140.9948ZM509.45 141.91667L508.3719 141.91667L508.3719 135.57292L509.45 135.57292L509.45 141.91667ZM508.27814 133.90105Q508.27814 133.63542 508.4344 133.44792Q508.60626 133.26042 508.91876 133.26042Q509.23126 133.26042 509.3875 133.44792Q509.5594 133.63542 509.5594 133.90105Q509.5594 134.15105 509.3875 134.33855Q509.23126 134.51042 508.91876 134.51042Q508.60626 134.51042 508.4344 134.33855Q508.27814 134.15105 508.27814 133.90105ZM514.96564 140.22917Q514.96564 139.79167 514.6219 139.5573Q514.29376 139.3073 513.46564 139.13542Q512.65314 138.96355 512.16876 138.71355Q511.6844 138.46355 511.45 138.13542Q511.23126 137.79167 511.23126 137.32292Q511.23126 136.54167 511.8875 136.01042Q512.54376 135.46355 513.575 135.46355Q514.65314 135.46355 515.3094 136.02605Q515.98126 136.57292 515.98126 137.4323L514.90314 137.4323Q514.90314 136.9948 514.5125 136.6823Q514.1375 136.35417 513.575 136.35417Q512.98126 136.35417 512.6375 136.6198Q512.3094 136.8698 512.3094 137.27605Q512.3094 137.66667 512.6219 137.8698Q512.9344 138.07292 513.7469 138.26042Q514.5594 138.4323 515.0594 138.6823Q515.5594 138.9323 515.79376 139.29167Q516.04376 139.65105 516.04376 140.15105Q516.04376 141.01042 515.35626 141.52605Q514.6844 142.04167 513.60626 142.04167Q512.84064 142.04167 512.2469 141.77605Q511.66876 141.4948 511.34064 141.01042Q511.0125 140.52605 511.0125 139.96355L512.09064 139.96355Q512.1219 140.51042 512.52814 140.83855Q512.9344 141.15105 513.60626 141.15105Q514.21564 141.15105 514.59064 140.90105Q514.96564 140.65105 514.96564 140.22917ZM518.7469 134.04167L518.7469 135.57292L519.91876 135.57292L519.91876 136.41667L518.7469 136.41667L518.7469 140.33855Q518.7469 140.72917 518.90314 140.91667Q519.0594 141.10417 519.4344 141.10417Q519.6219 141.10417 519.95 141.04167L519.95 141.91667Q519.52814 142.04167 519.1219 142.04167Q518.40314 142.04167 518.02814 141.60417Q517.65314 141.15105 517.65314 140.33855L517.65314 136.41667L516.4969 136.41667L516.4969 135.57292L517.65314 135.57292L517.65314 134.04167L518.7469 134.04167Z" fill-rule="nonzero"/><path stroke="#ff6d00" stroke-width="4.0" stroke-linecap="butt" d="M446.45 162.41667L458.45 162.41667" fill-rule="nonzero"/><path fill="#757575" d="M468.575 165.9948L472.6219 165.9948L472.6219 166.91667L467.4344 166.91667L467.4344 158.38542L468.575 158.38542L468.575 165.9948ZM474.45 166.91667L473.3719 166.91667L473.3719 160.57292L474.45 160.57292L474.45 166.91667ZM473.27814 158.90105Q473.27814 158.63542 473.4344 158.44792Q473.60626 158.26042 473.91876 158.26042Q474.23126 158.26042 474.3875 158.44792Q474.5594 158.63542 474.5594 158.90105Q474.5594 159.15105 474.3875 159.33855Q474.23126 159.51042 473.91876 159.51042Q473.60626 159.51042 473.4344 159.33855Q473.27814 159.15105 473.27814 158.90105ZM479.96564 165.22917Q479.96564 164.79167 479.6219 164.5573Q479.29376 164.3073 478.46564 164.13542Q477.65314 163.96355 477.16876 163.71355Q476.6844 163.46355 476.45 163.13542Q476.23126 162.79167 476.23126 162.32292Q476.23126 161.54167 476.8875 161.01042Q477.54376 160.46355 478.575 160.46355Q479.65314 160.46355 480.3094 161.02605Q480.98126 161.57292 480.98126 162.4323L479.90314 162.4323Q479.90314 161.9948 479.5125 161.6823Q479.1375 161.35417 478.575 161.35417Q477.98126 161.35417 477.6375 161.6198Q477.3094 161.8698 477.3094 162.27605Q477.3094 162.66667 477.6219 162.8698Q477.9344 163.07292 478.7469 163.26042Q479.5594 163.4323 480.0594 163.6823Q480.5594 163.9323 480.79376 164.29167Q481.04376 164.65105 481.04376 165.15105Q481.04376 166.01042 480.35626 166.52605Q479.6844 167.04167 478.60626 167.04167Q477.84064 167.04167 477.2469 166.77605Q476.66876 166.4948 476.34064 166.01042Q476.0125 165.52605 476.0125 164.96355L477.09064 164.96355Q477.1219 165.51042 477.52814 165.83855Q477.9344 166.15105 478.60626 166.15105Q479.21564 166.15105 479.59064 165.90105Q479.96564 165.65105 479.96564 165.22917ZM483.7469 159.04167L483.7469 160.57292L484.91876 160.57292L484.91876 161.41667L483.7469 161.41667L483.7469 165.33855Q483.7469 165.72917 483.90314 165.91667Q484.0594 166.10417 484.4344 166.10417Q484.6219 166.10417 484.95 166.04167L484.95 166.91667Q484.52814 167.04167 484.1219 167.04167Q483.40314 167.04167 483.02814 166.60417Q482.65314 166.15105 482.65314 165.33855L482.65314 161.41667L481.4969 161.41667L481.4969 160.57292L482.65314 160.57292L482.65314 159.04167L483.7469 159.04167Z" fill-rule="nonzero"/><path stroke="#46bdc6" stroke-width="4.0" stroke-linecap="butt" d="M446.45 187.41667L458.45 187.41667" fill-rule="nonzero"/><path fill="#757575" d="M469.95 188.1198Q468.5125 187.69792 467.84064 187.08855Q467.1844 186.47917 467.1844 185.58855Q467.1844 184.58855 467.98126 183.9323Q468.79376 183.26042 470.09064 183.26042Q470.96564 183.26042 471.65314 183.60417Q472.34064 183.94792 472.71564 184.54167Q473.10626 185.13542 473.10626 185.85417L471.96564 185.85417Q471.96564 185.07292 471.46564 184.63542Q470.98126 184.19792 470.09064 184.19792Q469.2625 184.19792 468.79376 184.57292Q468.325 184.9323 468.325 185.57292Q468.325 186.10417 468.7625 186.46355Q469.21564 186.82292 470.27814 187.1198Q471.34064 187.41667 471.9344 187.77605Q472.54376 188.13542 472.825 188.6198Q473.1219 189.10417 473.1219 189.7448Q473.1219 190.79167 472.3094 191.41667Q471.4969 192.04167 470.15314 192.04167Q469.2625 192.04167 468.4969 191.69792Q467.7469 191.35417 467.325 190.77605Q466.91876 190.1823 466.91876 189.44792L468.04376 189.44792Q468.04376 190.21355 468.6219 190.66667Q469.2 191.1198 470.15314 191.1198Q471.04376 191.1198 471.5125 190.76042Q471.98126 190.38542 471.98126 189.76042Q471.98126 189.13542 471.54376 188.79167Q471.10626 188.44792 469.95 188.1198ZM473.98126 188.6823Q473.98126 187.76042 474.34064 187.01042Q474.71564 186.26042 475.3719 185.8698Q476.02814 185.46355 476.85626 185.46355Q478.15314 185.46355 478.95 186.35417Q479.7625 187.2448 479.7625 188.7448L479.7625 188.82292Q479.7625 189.7448 479.40314 190.47917Q479.04376 191.21355 478.3875 191.63542Q477.73126 192.04167 476.8719 192.04167Q475.59064 192.04167 474.77814 191.15105Q473.98126 190.2448 473.98126 188.76042L473.98126 188.6823ZM475.075 188.82292Q475.075 189.8698 475.5594 190.51042Q476.0594 191.15105 476.8719 191.15105Q477.7 191.15105 478.1844 190.51042Q478.66876 189.85417 478.66876 188.6823Q478.66876 187.65105 478.16876 187.01042Q477.6844 186.35417 476.85626 186.35417Q476.0594 186.35417 475.5594 186.9948Q475.075 187.6198 475.075 188.82292ZM484.34064 186.54167Q484.09064 186.51042 483.8094 186.51042Q482.73126 186.51042 482.35626 187.41667L482.35626 191.91667L481.27814 191.91667L481.27814 185.57292L482.325 185.57292L482.34064 186.3073Q482.8719 185.46355 483.85626 185.46355Q484.16876 185.46355 484.34064 185.54167L484.34064 186.54167ZM486.7469 184.04167L486.7469 185.57292L487.91876 185.57292L487.91876 186.41667L486.7469 186.41667L486.7469 190.33855Q486.7469 190.72917 486.90314 190.91667Q487.0594 191.10417 487.4344 191.10417Q487.6219 191.10417 487.95 191.04167L487.95 191.91667Q487.52814 192.04167 487.1219 192.04167Q486.40314 192.04167 486.02814 191.60417Q485.65314 191.15105 485.65314 190.33855L485.65314 186.41667L484.4969 186.41667L484.4969 185.57292L485.65314 185.57292L485.65314 184.04167L486.7469 184.04167ZM491.90314 192.04167Q490.60626 192.04167 489.79376 191.19792Q488.9969 190.33855 488.9969 188.91667L488.9969 188.72917Q488.9969 187.77605 489.35626 187.04167Q489.71564 186.29167 490.35626 185.88542Q491.0125 185.46355 491.7625 185.46355Q492.9969 185.46355 493.6844 186.27605Q494.3719 187.08855 494.3719 188.60417L494.3719 189.0573L490.075 189.0573Q490.10626 189.9948 490.6219 190.57292Q491.15314 191.15105 491.96564 191.15105Q492.52814 191.15105 492.91876 190.91667Q493.325 190.6823 493.6375 190.29167L494.29376 190.8073Q493.4969 192.04167 491.90314 192.04167ZM491.7625 186.35417Q491.10626 186.35417 490.65314 186.83855Q490.21564 187.3073 490.1219 188.16667L493.29376 188.16667L493.29376 188.08855Q493.2469 187.26042 492.84064 186.8073Q492.45 186.35417 491.7625 186.35417ZM495.0125 188.69792Q495.0125 187.22917 495.7 186.35417Q496.3875 185.46355 497.5125 185.46355Q498.6219 185.46355 499.27814 186.21355L499.27814 182.91667L500.35626 182.91667L500.35626 191.91667L499.35626 191.91667L499.3094 191.22917Q498.65314 192.04167 497.4969 192.04167Q496.40314 192.04167 495.7 191.13542Q495.0125 190.22917 495.0125 188.77605L495.0125 188.69792ZM496.09064 188.82292Q496.09064 189.90105 496.52814 190.51042Q496.98126 191.1198 497.7625 191.1198Q498.79376 191.1198 499.27814 190.1823L499.27814 187.27605Q498.79376 186.38542 497.77814 186.38542Q496.98126 186.38542 496.52814 186.9948Q496.09064 187.60417 496.09064 188.82292ZM503.575 190.9948L507.6219 190.9948L507.6219 191.91667L502.4344 191.91667L502.4344 183.38542L503.575 183.38542L503.575 190.9948ZM509.45 191.91667L508.3719 191.91667L508.3719 185.57292L509.45 185.57292L509.45 191.91667ZM508.27814 183.90105Q508.27814 183.63542 508.4344 183.44792Q508.60626 183.26042 508.91876 183.26042Q509.23126 183.26042 509.3875 183.44792Q509.5594 183.63542 509.5594 183.90105Q509.5594 184.15105 509.3875 184.33855Q509.23126 184.51042 508.91876 184.51042Q508.60626 184.51042 508.4344 184.33855Q508.27814 184.15105 508.27814 183.90105ZM514.96564 190.22917Q514.96564 189.79167 514.6219 189.5573Q514.29376 189.3073 513.46564 189.13542Q512.65314 188.96355 512.16876 188.71355Q511.6844 188.46355 511.45 188.13542Q511.23126 187.79167 511.23126 187.32292Q511.23126 186.54167 511.8875 186.01042Q512.54376 185.46355 513.575 185.46355Q514.65314 185.46355 515.3094 186.02605Q515.98126 186.57292 515.98126 187.4323L514.90314 187.4323Q514.90314 186.9948 514.5125 186.6823Q514.1375 186.35417 513.575 186.35417Q512.98126 186.35417 512.6375 186.6198Q512.3094 186.8698 512.3094 187.27605Q512.3094 187.66667 512.6219 187.8698Q512.9344 188.07292 513.7469 188.26042Q514.5594 188.4323 515.0594 188.6823Q515.5594 188.9323 515.79376 189.29167Q516.04376 189.65105 516.04376 190.15105Q516.04376 191.01042 515.35626 191.52605Q514.6844 192.04167 513.60626 192.04167Q512.84064 192.04167 512.2469 191.77605Q511.66876 191.4948 511.34064 191.01042Q511.0125 190.52605 511.0125 189.96355L512.09064 189.96355Q512.1219 190.51042 512.52814 190.83855Q512.9344 191.15105 513.60626 191.15105Q514.21564 191.15105 514.59064 190.90105Q514.96564 190.65105 514.96564 190.22917ZM518.7469 184.04167L518.7469 185.57292L519.91876 185.57292L519.91876 186.41667L518.7469 186.41667L518.7469 190.33855Q518.7469 190.72917 518.90314 190.91667Q519.0594 191.10417 519.4344 191.10417Q519.6219 191.10417 519.95 191.04167L519.95 191.91667Q519.52814 192.04167 519.1219 192.04167Q518.40314 192.04167 518.02814 191.60417Q517.65314 191.15105 517.65314 190.33855L517.65314 186.41667L516.4969 186.41667L516.4969 185.57292L517.65314 185.57292L517.65314 184.04167L518.7469 184.04167Z" fill-rule="nonzero"/><path stroke="#ab30c4" stroke-width="4.0" stroke-linecap="butt" d="M446.45 212.41667L458.45 212.41667" fill-rule="nonzero"/><path fill="#757575" d="M470.2625 215.41667L472.7 208.38542L473.9344 208.38542L470.7625 216.91667L469.77814 216.91667L466.6219 208.38542L467.84064 208.38542L470.2625 215.41667ZM474.98126 213.6823Q474.98126 212.76042 475.34064 212.01042Q475.71564 211.26042 476.3719 210.8698Q477.02814 210.46355 477.85626 210.46355Q479.15314 210.46355 479.95 211.35417Q480.7625 212.2448 480.7625 213.7448L480.7625 213.82292Q480.7625 214.7448 480.40314 215.47917Q480.04376 216.21355 479.3875 216.63542Q478.73126 217.04167 477.8719 217.04167Q476.59064 217.04167 475.77814 216.15105Q474.98126 215.2448 474.98126 213.76042L474.98126 213.6823ZM476.075 213.82292Q476.075 214.8698 476.5594 215.51042Q477.0594 216.15105 477.8719 216.15105Q478.7 216.15105 479.1844 215.51042Q479.66876 214.85417 479.66876 213.6823Q479.66876 212.65105 479.16876 212.01042Q478.6844 211.35417 477.85626 211.35417Q477.0594 211.35417 476.5594 211.9948Q476.075 212.6198 476.075 213.82292ZM483.45 216.91667L482.3719 216.91667L482.3719 210.57292L483.45 210.57292L483.45 216.91667ZM482.27814 208.90105Q482.27814 208.63542 482.4344 208.44792Q482.60626 208.26042 482.91876 208.26042Q483.23126 208.26042 483.3875 208.44792Q483.5594 208.63542 483.5594 208.90105Q483.5594 209.15105 483.3875 209.33855Q483.23126 209.51042 482.91876 209.51042Q482.60626 209.51042 482.4344 209.33855Q482.27814 209.15105 482.27814 208.90105ZM485.0125 213.69792Q485.0125 212.22917 485.7 211.35417Q486.3875 210.46355 487.5125 210.46355Q488.6219 210.46355 489.27814 211.21355L489.27814 207.91667L490.35626 207.91667L490.35626 216.91667L489.35626 216.91667L489.3094 216.22917Q488.65314 217.04167 487.4969 217.04167Q486.40314 217.04167 485.7 216.13542Q485.0125 215.22917 485.0125 213.77605L485.0125 213.69792ZM486.09064 213.82292Q486.09064 214.90105 486.52814 215.51042Q486.98126 216.1198 487.7625 216.1198Q488.79376 216.1198 489.27814 215.1823L489.27814 212.27605Q488.79376 211.38542 487.77814 211.38542Q486.98126 211.38542 486.52814 211.9948Q486.09064 212.60417 486.09064 213.82292Z" fill-rule="nonzero"/><path fill="#757575" d="M22.628124 23.33125L27.26875 34.925L31.925 23.33125L34.346874 23.33125L34.346874 37.55L32.471874 37.55L32.471874 32.01875L32.659374 26.034374L27.9875 37.55L26.55 37.55L21.89375 26.065624L22.08125 32.01875L22.08125 37.55L20.20625 37.55L20.20625 23.33125L22.628124 23.33125ZM41.3 37.753124Q39.159374 37.753124 37.8 36.346874Q36.45625 34.925 36.45625 32.565624L36.45625 32.221874Q36.45625 30.659374 37.05 29.425Q37.659374 28.190624 38.7375 27.4875Q39.815624 26.784374 41.08125 26.784374Q43.14375 26.784374 44.284374 28.14375Q45.425 29.503124 45.425 32.034374L45.425 32.784374L38.26875 32.784374Q38.3 34.346874 39.175 35.315624Q40.05 36.26875 41.39375 36.26875Q42.3625 36.26875 43.01875 35.878124Q43.690624 35.4875 44.190624 34.846874L45.284374 35.70625Q43.95625 37.753124 41.3 37.753124ZM41.08125 28.26875Q39.9875 28.26875 39.2375 29.065624Q38.503124 29.8625 38.33125 31.3L43.6125 31.3L43.6125 31.159374Q43.534374 29.784374 42.8625 29.034374Q42.20625 28.26875 41.08125 28.26875ZM49.6125 26.9875L49.659374 28.159374Q50.83125 26.784374 52.8 26.784374Q55.01875 26.784374 55.815624 28.4875Q56.346874 27.721874 57.190624 27.253124Q58.034374 26.784374 59.190624 26.784374Q62.659374 26.784374 62.721874 30.471874L62.721874 37.55L60.909374 37.55L60.909374 30.58125Q60.909374 29.440624 60.39375 28.878124Q59.878124 28.315624 58.659374 28.315624Q57.659374 28.315624 56.9875 28.925Q56.33125 29.51875 56.221874 30.534374L56.221874 37.55L54.409374 37.55L54.409374 30.628124Q54.409374 28.315624 52.14375 28.315624Q50.3625 28.315624 49.721874 29.83125L49.721874 37.55L47.909374 37.55L47.909374 26.9875L49.6125 26.9875ZM65.44063 32.175Q65.44063 30.6125 66.05 29.378124Q66.65938 28.128124 67.7375 27.45625Q68.83125 26.784374 70.2375 26.784374Q72.39375 26.784374 73.72188 28.284374Q75.06563 29.76875 75.06563 32.253124L75.06563 32.378124Q75.06563 33.925 74.47188 35.159374Q73.87813 36.378124 72.76875 37.065624Q71.675 37.753124 70.25313 37.753124Q68.1125 37.753124 66.76875 36.253124Q65.44063 34.753124 65.44063 32.3L65.44063 32.175ZM67.25313 32.378124Q67.25313 34.14375 68.06563 35.20625Q68.89375 36.26875 70.25313 36.26875Q71.62813 36.26875 72.44063 35.190624Q73.25313 34.1125 73.25313 32.175Q73.25313 30.425 72.425 29.346874Q71.59688 28.26875 70.2375 28.26875Q68.89375 28.26875 68.06563 29.33125Q67.25313 30.39375 67.25313 32.378124ZM82.01875 28.596874Q81.6125 28.534374 81.14375 28.534374Q79.3625 28.534374 78.72188 30.05L78.72188 37.55L76.925 37.55L76.925 26.9875L78.675 26.9875L78.70625 28.20625Q79.59688 26.784374 81.22188 26.784374Q81.75313 26.784374 82.01875 26.925L82.01875 28.596874ZM87.37813 34.909374L89.83125 26.9875L91.76875 26.9875L87.51875 39.175Q86.53438 41.815624 84.39375 41.815624L84.05 41.784374L83.37813 41.659374L83.37813 40.190624L83.8625 40.2375Q84.78438 40.2375 85.28438 39.8625Q85.8 39.4875 86.12813 38.503124L86.53438 37.425L82.76875 26.9875L84.7375 26.9875L87.37813 34.909374ZM97.84688 31.784374Q97.84688 29.565624 98.44063 27.534374Q99.03438 25.503124 100.20625 23.846874Q101.37813 22.190624 102.62813 21.503124L103.00313 22.690624Q101.58125 23.784374 100.65938 26.034374Q99.75313 28.284374 99.65938 31.065624L99.65938 31.89375Q99.65938 35.659374 101.03438 38.440624Q101.8625 40.096874 103.00313 41.034374L102.62813 42.14375Q101.33125 41.425 100.15938 39.721874Q97.84688 36.39375 97.84688 31.784374ZM104.95625 36.596874Q104.95625 36.128124 105.2375 35.815624Q105.51875 35.503124 106.06563 35.503124Q106.62813 35.503124 106.90938 35.815624Q107.20625 36.128124 107.20625 36.596874Q107.20625 37.05 106.90938 37.3625Q106.62813 37.659374 106.06563 37.659374Q105.51875 37.659374 105.2375 37.3625Q104.95625 37.05 104.95625 36.596874ZM121.12813 37.55L119.2375 37.55L112.08125 26.596874L112.08125 37.55L110.20625 37.55L110.20625 23.33125L112.08125 23.33125L119.26875 34.33125L119.26875 23.33125L121.12813 23.33125L121.12813 37.55ZM132.2375 30.971874L126.08125 30.971874L126.08125 36.01875L133.2375 36.01875L133.2375 37.55L124.20625 37.55L124.20625 23.33125L133.14375 23.33125L133.14375 24.878124L126.08125 24.878124L126.08125 29.440624L132.2375 29.440624L132.2375 30.971874ZM145.01875 24.878124L140.45625 24.878124L140.45625 37.55L138.59688 37.55L138.59688 24.878124L134.03438 24.878124L134.03438 23.33125L145.01875 23.33125L145.01875 24.878124ZM162.65938 33.034374Q162.39375 35.3 160.9875 36.534374Q159.59688 37.753124 157.26875 37.753124Q154.75313 37.753124 153.22188 35.940624Q151.70625 34.128124 151.70625 31.096874L151.70625 29.7375Q151.70625 27.753124 152.40938 26.253124Q153.12813 24.753124 154.425 23.940624Q155.72188 23.128124 157.44063 23.128124Q159.70625 23.128124 161.06563 24.39375Q162.44063 25.659374 162.65938 27.89375L160.76875 27.89375Q160.53438 26.20625 159.70625 25.440624Q158.89375 24.675 157.44063 24.675Q155.64375 24.675 154.6125 26.003124Q153.59688 27.33125 153.59688 29.784374L153.59688 31.159374Q153.59688 33.471874 154.56563 34.846874Q155.53438 36.20625 157.26875 36.20625Q158.83125 36.20625 159.65938 35.503124Q160.50313 34.8 160.76875 33.034374L162.65938 33.034374ZM164.44063 32.175Q164.44063 30.6125 165.05 29.378124Q165.65938 28.128124 166.7375 27.45625Q167.83125 26.784374 169.2375 26.784374Q171.39375 26.784374 172.72188 28.284374Q174.06563 29.76875 174.06563 32.253124L174.06563 32.378124Q174.06563 33.925 173.47188 35.159374Q172.87813 36.378124 171.76875 37.065624Q170.675 37.753124 169.25313 37.753124Q167.1125 37.753124 165.76875 36.253124Q164.44063 34.753124 164.44063 32.3L164.44063 32.175ZM166.25313 32.378124Q166.25313 34.14375 167.06563 35.20625Q167.89375 36.26875 169.25313 36.26875Q170.62813 36.26875 171.44063 35.190624Q172.25313 34.1125 172.25313 32.175Q172.25313 30.425 171.425 29.346874Q170.59688 28.26875 169.2375 28.26875Q167.89375 28.26875 167.06563 29.33125Q166.25313 30.39375 166.25313 32.378124ZM181.01875 28.596874Q180.6125 28.534374 180.14375 28.534374Q178.3625 28.534374 177.72188 30.05L177.72188 37.55L175.925 37.55L175.925 26.9875L177.675 26.9875L177.70625 28.20625Q178.59688 26.784374 180.22188 26.784374Q180.75313 26.784374 181.01875 26.925L181.01875 28.596874ZM187.3 37.753124Q185.15938 37.753124 183.8 36.346874Q182.45625 34.925 182.45625 32.565624L182.45625 32.221874Q182.45625 30.659374 183.05 29.425Q183.65938 28.190624 184.7375 27.4875Q185.81563 26.784374 187.08125 26.784374Q189.14375 26.784374 190.28438 28.14375Q191.425 29.503124 191.425 32.034374L191.425 32.784374L184.26875 32.784374Q184.3 34.346874 185.175 35.315624Q186.05 36.26875 187.39375 36.26875Q188.3625 36.26875 189.01875 35.878124Q189.69063 35.4875 190.19063 34.846874L191.28438 35.70625Q189.95625 37.753124 187.3 37.753124ZM187.08125 28.26875Q185.9875 28.26875 185.2375 29.065624Q184.50313 29.8625 184.33125 31.3L189.6125 31.3L189.6125 31.159374Q189.53438 29.784374 188.8625 29.034374Q188.20625 28.26875 187.08125 28.26875ZM199.56563 30.425L200.28438 23.33125L207.56563 23.33125L207.56563 25.003124L201.81563 25.003124L201.39375 28.878124Q202.44063 28.26875 203.76875 28.26875Q205.70625 28.26875 206.84688 29.55Q207.9875 30.83125 207.9875 33.01875Q207.9875 35.221874 206.8 36.4875Q205.6125 37.753124 203.4875 37.753124Q201.59688 37.753124 200.40938 36.70625Q199.22188 35.659374 199.05 33.815624L200.76875 33.815624Q200.925 35.034374 201.62813 35.659374Q202.33125 36.26875 203.4875 36.26875Q204.75313 36.26875 205.47188 35.409374Q206.19063 34.55 206.19063 33.034374Q206.19063 31.6125 205.40938 30.753124Q204.62813 29.878124 203.34688 29.878124Q202.15938 29.878124 201.4875 30.39375L201.00313 30.784374L199.56563 30.425ZM209.95625 36.596874Q209.95625 36.128124 210.2375 35.815624Q210.51875 35.503124 211.06563 35.503124Q211.62813 35.503124 211.90938 35.815624Q212.20625 36.128124 212.20625 36.596874Q212.20625 37.05 211.90938 37.3625Q211.62813 37.659374 211.06563 37.659374Q210.51875 37.659374 210.2375 37.3625Q209.95625 37.05 209.95625 36.596874ZM223.64375 31.4875Q223.64375 34.659374 222.56563 36.20625Q221.4875 37.753124 219.175 37.753124Q216.89375 37.753124 215.8 36.2375Q214.70625 34.721874 214.675 31.721874L214.675 29.315624Q214.675 26.175 215.75313 24.659374Q216.84688 23.128124 219.15938 23.128124Q221.45625 23.128124 222.53438 24.6125Q223.6125 26.08125 223.64375 29.14375L223.64375 31.4875ZM221.84688 29.01875Q221.84688 26.721874 221.19063 25.675Q220.55 24.6125 219.15938 24.6125Q217.76875 24.6125 217.12813 25.659374Q216.50313 26.70625 216.4875 28.878124L216.4875 31.76875Q216.4875 34.065624 217.14375 35.175Q217.81563 36.26875 219.175 36.26875Q220.51875 36.26875 221.15938 35.2375Q221.81563 34.20625 221.84688 31.971874L221.84688 29.01875ZM230.08125 31.878124Q230.08125 34.05 229.50313 36.05Q228.94063 38.05 227.76875 39.7375Q226.59688 41.425 225.3 42.14375L224.925 41.034374Q226.425 39.878124 227.33125 37.45625Q228.25313 35.034374 228.26875 32.065624L228.26875 31.753124Q228.26875 29.70625 227.83125 27.940624Q227.40938 26.175 226.64375 24.784374Q225.87813 23.39375 224.925 22.6125L225.3 21.503124Q226.59688 22.221874 227.75313 23.89375Q228.925 25.55 229.50313 27.565624Q230.08125 29.58125 230.08125 31.878124Z" fill-rule="nonzero"/></svg>